<?xml version="1.0" encoding="utf-8"?>
<!-- Generator: Adobe Illustrator 17.0.0, SVG Export Plug-In . SVG Version: 6.00 Build 0)  -->
<!DOCTYPE svg PUBLIC "-//W3C//DTD SVG 1.1//EN" "http://www.w3.org/Graphics/SVG/1.1/DTD/svg11.dtd" [
	<!ENTITY ns_flows "http://ns.adobe.com/Flows/1.0/">
	<!ENTITY ns_extend "http://ns.adobe.com/Extensibility/1.0/">
	<!ENTITY ns_ai "http://ns.adobe.com/AdobeIllustrator/10.0/">
	<!ENTITY ns_graphs "http://ns.adobe.com/Graphs/1.0/">
]>
<svg version="1.1" id="Layer_1" xmlns:x="&ns_extend;" xmlns:i="&ns_ai;" xmlns:graph="&ns_graphs;"
	 xmlns="http://www.w3.org/2000/svg" xmlns:xlink="http://www.w3.org/1999/xlink" xmlns:a="http://ns.adobe.com/AdobeSVGViewerExtensions/3.0/"
	 x="0px" y="0px" width="1102.5px" height="895.2px" viewBox="0 0 1102.5 895.2" enable-background="new 0 0 1102.5 895.2"
	 xml:space="preserve">
<g>
	<path fill="#606060" d="M270.8,374.5c78.8,39.2,118.4-7.5,118.7-51.2c0.3-43.7-41.8-88.7-112.5-94.3
		c-124.3-9.9-160.2,65.2-160.9,149.8l-8.3,499.5l29.6-14.2l1.2-508.5C171.8,332.9,214.5,346.5,270.8,374.5z"/>
	<path fill="#F05738" d="M1002.9,405l-899-382.6C65.2,5.9,20,30.3,20,67.8V833c0,37.4,45.2,61.9,83.9,45.4l0.8-0.4l8.3-501.2
		c0.6-80.9,36.6-152.6,160.9-143.1c70.7,5.4,112.9,48.4,112.5,90.2c-0.3,41.8-39.9,86.4-118.7,48.9c-56.3-26.8-99-39.7-132.2-18.1
		l1.9,509.4l865.5-368.3C1046.4,477.3,1046.4,423.5,1002.9,405z"/>
	<path fill="#FFFFFF" d="M249.1,355c78.8,39.2,118.4-7.5,118.7-51.2s-41.8-88.7-112.5-94.3C131,199.6,95,274.7,94.4,359.3
		l-8.3,524.4c2.6-0.2,5.4-0.6,8.4-1.2c8.4-1.7,15-4.7,19.8-7.4c0.8-179.7,1.7-359.3,2.5-539C150,313.4,192.7,327,249.1,355z"/>
</g>
<path fill="#FFFFFF" d="M306.1,781.3h19.6l-15.1,71.5h-17.5l-7.9-37.3l-7.8,37.3h-17.5l-15.1-71.5h19.6l6.1,41.6l7.8-41.6h13.9
	l7.7,41.6L306.1,781.3z"/>
<path fill="#FFFFFF" d="M342.1,844l-1.7,8.9h-19.3l17.3-71.5h20.5l17.3,71.5h-19.3l-1.7-8.9H342.1z M344.2,832.6h8.9l-4.4-25.4
	L344.2,832.6z"/>
<path fill="#FFFFFF" d="M430.9,823.7c0,1.6-0.7,3-2.2,4.3c-1.5,1.3-3.6,2-6.4,2l10.1,22.8h-19.9l-9.3-22.8h-2.5v22.8h-19.2v-71.5
	h36.4c4.5,0,7.8,0.8,9.9,2.5c2.1,1.7,3.1,3.9,3.1,6.8V823.7z M400.7,793.9v24.7h9.4c1.2,0,1.9-0.5,1.9-1.5v-21.7
	c0-1-0.6-1.5-1.9-1.5H400.7z"/>
<path fill="#FFFFFF" d="M439.1,781.3h37.3l3.3,13.3h-20.9v17h15.9v12.3h-15.9v15.6H479l-3.3,13.3h-36.5v-71.5H439.1z"/>
<path fill="#FFFFFF" d="M540.2,852.8h-19.6v-28.6h-10.5v28.6h-19.6v-71.5h19.6v30.6h10.5v-30.6h19.6V852.8z"/>
<path fill="#FFFFFF" d="M597.9,842.7c0,1.4-0.2,2.7-0.7,3.9c-0.4,1.2-1.2,2.3-2.3,3.2s-2.5,1.7-4.2,2.2c-1.8,0.6-4,0.8-6.6,0.8
	h-22.2c-2.6,0-4.9-0.3-6.6-0.8c-1.8-0.6-3.2-1.3-4.2-2.2c-1.1-0.9-1.8-2-2.3-3.2c-0.4-1.2-0.7-2.5-0.7-3.9v-52.1
	c0-2.8,1-5.1,3.1-6.8c2.1-1.7,5.4-2.5,9.9-2.5h23.8c4.5,0,7.8,0.8,9.9,2.5c2.1,1.7,3.1,3.9,3.1,6.8V842.7z M569.2,793.9
	c-1.1,0-1.7,0.5-1.7,1.4v43.6c0,0.5,0.1,0.9,0.3,1.1s0.7,0.3,1.5,0.3h7.3c0.8,0,1.3-0.1,1.5-0.3c0.2-0.2,0.3-0.6,0.3-1.1v-43.6
	c0-0.9-0.6-1.4-1.7-1.4H569.2z"/>
<path fill="#FFFFFF" d="M620.8,852.8c-5.6,0-9.4-0.9-11.6-2.6c-2.2-1.7-3.3-4.5-3.3-8.5v-60.5h19.6v57.4c0,0.5,0.1,0.9,0.3,1.2
	c0.2,0.3,0.7,0.4,1.5,0.4h6.8c0.8,0,1.3-0.1,1.5-0.4s0.3-0.7,0.3-1.2v-57.4h19.6v60.5c0,3.9-1.1,6.8-3.3,8.5
	c-2.2,1.7-6.1,2.6-11.6,2.6H620.8z"/>
<path fill="#FFFFFF" d="M668.2,852.8l-3.4-13.3h20.6c1.5,0,2.3-0.5,2.3-1.5v-13c0-1-0.3-1.6-0.8-1.8c-0.5-0.2-1.5-0.3-2.8-0.3h-9.9
	c-1.4,0-2.8-0.1-4-0.2c-1.3-0.2-2.4-0.5-3.4-1.1s-1.8-1.4-2.4-2.5c-0.6-1.1-0.9-2.5-0.9-4.2v-24.3c0-2.8,1-5.1,3.1-6.8
	c2.1-1.7,5.4-2.5,9.9-2.5H703l3.3,13.3h-21.7c-1.6,0-2.4,0.5-2.4,1.6v13c0,0.7,0.2,1.2,0.7,1.5c0.5,0.3,1.2,0.4,2.2,0.4h12
	c3.1,0,5.4,0.5,7.1,1.6c1.6,1.1,2.4,3,2.4,5.7V842c0,3.9-1.1,6.7-3.2,8.4c-2.2,1.6-6,2.5-11.4,2.5h-23.8V852.8z"/>
<path fill="#FFFFFF" d="M714.5,781.3h37.3l3.3,13.3h-20.9v17h15.9v12.3h-15.9v15.6h20.1l-3.3,13.3h-36.5L714.5,781.3L714.5,781.3z"
	/>
<path fill="#FFFFFF" d="M760.7,846.2c0-2.1,1-3.9,3-5.4s4.5-2.3,7.3-2.3s5.2,0.8,7.3,2.3c2,1.5,3,3.3,3,5.4s-1,3.9-3,5.4
	s-4.5,2.2-7.3,2.2s-5.3-0.7-7.3-2.2S760.7,848.3,760.7,846.2z"/>
<path fill="#FFFFFF" d="M812,781.3h19.5l-17.7,71.5h-20L776,781.3h19.5l1.7,9.2l6.5,37l6.6-37.2L812,781.3z"/>
<path fill="#FFFFFF" d="M836.8,781.3h18.3l9.8,28.7v-28.7h19.7v71.5h-19.7L854.5,823v29.9h-17.7V781.3z"/>
<g>
	<path fill="#221E1F" stroke="#FFFFFF" stroke-width="10" stroke-miterlimit="10" d="M240,487.4c0-10.8,3-19.4,9.1-25.8
		c6.1-6.5,15.1-9.7,27.2-9.7h87.5l10.6,54.5h-67.2c-3.7,0-5.5,1.9-5.5,5.7v173.6c0,3.8,1.8,5.7,5.5,5.7h27.9V575.8h59.6v168.8h-107
		c-17.7,0-30.1-3.5-37.2-10.5c-7-7-10.6-18.6-10.6-34.7v-212H240z"/>
	<path fill="#221E1F" stroke="#FFFFFF" stroke-width="10" stroke-miterlimit="10" d="M594.4,703c0,5.7-0.7,11-2.1,16
		c-1.4,5-3.8,9.4-7.2,13.1c-3.4,3.8-7.9,6.8-13.5,9.1c-5.6,2.3-12.7,3.4-21.1,3.4h-71c-8.4,0-15.5-1.1-21.1-3.4s-10.1-5.3-13.5-9.1
		c-3.4-3.8-5.8-8.1-7.2-13.1c-1.4-5-2.1-10.3-2.1-16V489.8c0-11.6,3.3-20.8,9.9-27.7c6.6-6.9,17.1-10.3,31.5-10.3h76
		c14.4,0,24.9,3.4,31.5,10.3s9.9,16.1,9.9,27.7V703z M502.8,503.1c-3.7,0-5.5,1.9-5.5,5.7v178.5c0,2.2,0.4,3.7,1.1,4.6
		s2.3,1.4,4.9,1.4h23.2c2.5,0,4.2-0.5,4.9-1.4s1.1-2.5,1.1-4.6V508.8c0-3.8-1.8-5.7-5.5-5.7L502.8,503.1L502.8,503.1z"/>
	<path fill="#221E1F" stroke="#FFFFFF" stroke-width="10" stroke-miterlimit="10" d="M636.7,451.8h62.9V690h61.7l-10.6,54.5h-114
		V451.8z"/>
	<path fill="#221E1F" stroke="#FFFFFF" stroke-width="10" stroke-miterlimit="10" d="M797.2,451.8h119.1l10.6,54.5h-66.7v69.5h50.7
		v50.5h-50.7v118.3h-62.9L797.2,451.8L797.2,451.8z"/>
</g>
</svg>
