<?xml version="1.0" encoding="utf-8"?>
<!-- Generator: Adobe Illustrator 17.0.0, SVG Export Plug-In . SVG Version: 6.00 Build 0)  -->
<!DOCTYPE svg PUBLIC "-//W3C//DTD SVG 1.1//EN" "http://www.w3.org/Graphics/SVG/1.1/DTD/svg11.dtd" [
	<!ENTITY ns_flows "http://ns.adobe.com/Flows/1.0/">
	<!ENTITY ns_extend "http://ns.adobe.com/Extensibility/1.0/">
	<!ENTITY ns_ai "http://ns.adobe.com/AdobeIllustrator/10.0/">
	<!ENTITY ns_graphs "http://ns.adobe.com/Graphs/1.0/">
]>
<svg version="1.1" id="Layer_1" xmlns:x="&ns_extend;" xmlns:i="&ns_ai;" xmlns:graph="&ns_graphs;"
	 xmlns="http://www.w3.org/2000/svg" xmlns:xlink="http://www.w3.org/1999/xlink" xmlns:a="http://ns.adobe.com/AdobeSVGViewerExtensions/3.0/"
	 x="0px" y="0px" width="308.5px" height="76.5px" viewBox="0 0 308.5 76.5" enable-background="new 0 0 308.5 76.5"
	 xml:space="preserve">
<g>
	<path fill="#818181" d="M103.4,46h0.6l2.7,6.7V46h0.7v8.6h-0.6l-2.7-6.7v6.7h-0.7V46z"/>
	<path fill="#818181" d="M111.2,46h0.8l1.8,8.6h-0.8l-0.4-2.3h-2l-0.4,2.3h-0.8L111.2,46z M112.5,51.7l-0.9-4.6l-0.9,4.6H112.5z"/>
	<path fill="#818181" d="M116,46h0.8l1.7,7.4l1.7-7.4h0.8l0.2,8.6h-0.7l-0.2-6.8l-1.6,6.8h-0.5l-1.6-6.8l-0.2,6.8h-0.7L116,46z"/>
	<path fill="#818181" d="M126.2,46h0.8l1.6,7.1l1.5-7.1h0.8l-1.9,8.6h-0.7L126.2,46z"/>
	<path fill="#818181" d="M132.9,46h0.8v8.6h-0.8V46z"/>
	<path fill="#818181" d="M136.1,46h3.1v0.6h-2.3v3.2h1.9v0.6h-1.9V54h2.3v0.6h-3.1V46z"/>
	<path fill="#818181" d="M142.2,46.6h-1.7V46h4.2v0.6H143v7.9h-0.8V46.6z"/>
	<path fill="#818181" d="M148.8,54.3c0.4,0,0.7,0,0.9-0.1s0.3-0.2,0.4-0.4c0.1-0.2,0.1-0.5,0.1-1V46h0.8v6.9c0,0.5,0,0.9-0.1,1.2
		c-0.1,0.3-0.3,0.5-0.5,0.6c-0.2,0.1-0.6,0.2-1.1,0.2h-0.4V54.3z"/>
	<path fill="#818181" d="M153.7,54c-0.3-0.5-0.5-1.1-0.5-1.9v-3.6c0-0.8,0.2-1.5,0.5-1.9s0.9-0.7,1.7-0.7c0.8,0,1.3,0.2,1.7,0.7
		c0.3,0.4,0.5,1.1,0.5,1.9v3.6c0,0.8-0.2,1.5-0.5,1.9c-0.3,0.5-0.9,0.7-1.7,0.7C154.6,54.7,154,54.5,153.7,54z M156.5,53.6
		c0.2-0.3,0.3-0.8,0.3-1.3v-3.9c0-0.6-0.1-1-0.3-1.3s-0.6-0.4-1.1-0.4c-0.5,0-0.9,0.1-1.1,0.4c-0.2,0.3-0.3,0.7-0.3,1.3v3.9
		c0,0.6,0.1,1.1,0.3,1.4c0.2,0.3,0.6,0.5,1.1,0.5C155.9,54,156.3,53.9,156.5,53.6z"/>
	<path fill="#818181" d="M159.9,46h0.8v8.6h-0.8V46z"/>
	<path fill="#818181" d="M163.2,46h0.6l2.7,6.7V46h0.7v8.6h-0.6l-2.7-6.7v6.7h-0.7V46z"/>
	<path fill="#818181" d="M173,54.1c-0.4-0.4-0.6-1-0.6-1.7l0.7-0.2c0.1,0.6,0.2,1.1,0.4,1.4c0.2,0.3,0.6,0.5,1,0.5
		c0.8,0,1.2-0.4,1.2-1.2c0-0.4-0.1-0.7-0.2-0.9c-0.2-0.3-0.4-0.6-0.8-0.9l-1.5-1.4c-0.3-0.3-0.5-0.5-0.6-0.8
		c-0.1-0.3-0.2-0.6-0.2-0.9c0-0.6,0.2-1,0.5-1.4c0.4-0.3,0.8-0.5,1.4-0.5c0.6,0,1.1,0.2,1.4,0.5c0.3,0.3,0.5,0.9,0.6,1.7l-0.7,0.2
		c0-0.6-0.2-1-0.4-1.3c-0.2-0.3-0.5-0.4-0.9-0.4c-0.4,0-0.7,0.1-0.9,0.3c-0.2,0.2-0.3,0.5-0.3,0.9c0,0.2,0,0.4,0.1,0.6
		c0.1,0.2,0.2,0.4,0.5,0.6l1.5,1.4c0.4,0.4,0.7,0.8,0.9,1.1c0.2,0.4,0.3,0.8,0.3,1.2c0,0.6-0.2,1.1-0.5,1.4
		c-0.4,0.3-0.8,0.5-1.4,0.5C173.9,54.7,173.4,54.5,173,54.1z"/>
	<path fill="#818181" d="M179.5,46.6h-1.7V46h4.2v0.6h-1.7v7.9h-0.8V46.6z"/>
	<path fill="#818181" d="M183.9,54c-0.3-0.5-0.5-1.1-0.5-1.9v-3.6c0-0.8,0.2-1.5,0.5-1.9s0.9-0.7,1.7-0.7c0.8,0,1.3,0.2,1.7,0.7
		c0.3,0.4,0.5,1.1,0.5,1.9v3.6c0,0.8-0.2,1.5-0.5,1.9c-0.3,0.5-0.9,0.7-1.7,0.7C184.8,54.7,184.3,54.5,183.9,54z M186.7,53.6
		c0.2-0.3,0.3-0.8,0.3-1.3v-3.9c0-0.6-0.1-1-0.3-1.3s-0.6-0.4-1.1-0.4c-0.5,0-0.9,0.1-1.1,0.4c-0.2,0.3-0.3,0.7-0.3,1.3v3.9
		c0,0.6,0.1,1.1,0.3,1.4c0.2,0.3,0.6,0.5,1.1,0.5C186.1,54,186.5,53.9,186.7,53.6z"/>
	<path fill="#818181" d="M190.4,54c-0.3-0.5-0.5-1.1-0.5-2v-3.4c0-0.9,0.2-1.5,0.5-2s0.9-0.7,1.7-0.7c0.7,0,1.3,0.2,1.6,0.6
		s0.5,1,0.5,1.8v0.5h-0.8v-0.5c0-0.4,0-0.7-0.1-1c-0.1-0.3-0.2-0.5-0.4-0.6c-0.2-0.1-0.4-0.2-0.8-0.2c-0.4,0-0.7,0.1-0.9,0.2
		c-0.2,0.2-0.3,0.4-0.4,0.6c-0.1,0.3-0.1,0.6-0.1,1v3.6c0,0.7,0.1,1.1,0.3,1.4c0.2,0.3,0.6,0.5,1.1,0.5c0.5,0,0.8-0.2,1-0.5
		c0.2-0.3,0.3-0.8,0.3-1.4v-0.6h0.8v0.5c0,0.8-0.2,1.4-0.5,1.9c-0.3,0.4-0.8,0.7-1.6,0.7C191.3,54.7,190.7,54.4,190.4,54z"/>
	<path fill="#818181" d="M196.3,46h0.8v4.5l2.3-4.5h0.8l-1.8,3.7l2.1,4.9h-0.8l-1.9-4.3l-0.8,1.4v2.9h-0.8V46z"/>
	<path fill="#818181" d="M205.4,46h0.8v8.6h-0.8V46z"/>
	<path fill="#818181" d="M208.7,46h0.6l2.7,6.7V46h0.7v8.6h-0.6l-2.7-6.7v6.7h-0.7V46z"/>
	<path fill="#818181" d="M215.4,54.1c-0.4-0.4-0.6-1-0.6-1.7l0.7-0.2c0.1,0.6,0.2,1.1,0.4,1.4c0.2,0.3,0.6,0.5,1,0.5
		c0.8,0,1.2-0.4,1.2-1.2c0-0.4-0.1-0.7-0.2-0.9c-0.2-0.3-0.4-0.6-0.8-0.9l-1.5-1.4c-0.3-0.3-0.5-0.5-0.6-0.8
		c-0.1-0.3-0.2-0.6-0.2-0.9c0-0.6,0.2-1,0.5-1.4c0.4-0.3,0.8-0.5,1.4-0.5c0.6,0,1.1,0.2,1.4,0.5c0.3,0.3,0.5,0.9,0.6,1.7l-0.7,0.2
		c0-0.6-0.2-1-0.4-1.3c-0.2-0.3-0.5-0.4-0.9-0.4c-0.4,0-0.7,0.1-0.9,0.3c-0.2,0.2-0.3,0.5-0.3,0.9c0,0.2,0,0.4,0.1,0.6
		c0.1,0.2,0.2,0.4,0.5,0.6l1.5,1.4c0.4,0.4,0.7,0.8,0.9,1.1c0.2,0.4,0.3,0.8,0.3,1.2c0,0.6-0.2,1.1-0.5,1.4
		c-0.4,0.3-0.8,0.5-1.4,0.5C216.3,54.7,215.8,54.5,215.4,54.1z"/>
	<path fill="#818181" d="M221,46h2.1c0.7,0,1.2,0.2,1.6,0.6c0.3,0.4,0.5,1,0.5,1.7c0,0.7-0.2,1.2-0.5,1.6s-0.8,0.6-1.5,0.6h-1.3v4
		H221V46z M222.8,49.9c0.5,0,0.9-0.1,1.1-0.4c0.2-0.2,0.3-0.7,0.3-1.3c0-0.4,0-0.8-0.1-1s-0.2-0.4-0.4-0.5s-0.5-0.1-0.9-0.1h-1v3.3
		H222.8z"/>
	<path fill="#818181" d="M227,46h3.1v0.6h-2.3v3.2h1.9v0.6h-1.9V54h2.3v0.6H227V46z"/>
	<path fill="#818181" d="M232.5,54c-0.3-0.5-0.5-1.1-0.5-2v-3.4c0-0.9,0.2-1.5,0.5-2s0.9-0.7,1.7-0.7c0.7,0,1.3,0.2,1.6,0.6
		s0.5,1,0.5,1.8v0.5h-0.8v-0.5c0-0.4,0-0.7-0.1-1c-0.1-0.3-0.2-0.5-0.4-0.6c-0.2-0.1-0.4-0.2-0.8-0.2c-0.4,0-0.7,0.1-0.9,0.2
		c-0.2,0.2-0.3,0.4-0.4,0.6c-0.1,0.3-0.1,0.6-0.1,1v3.6c0,0.7,0.1,1.1,0.3,1.4c0.2,0.3,0.6,0.5,1.1,0.5c0.5,0,0.8-0.2,1-0.5
		c0.2-0.3,0.3-0.8,0.3-1.4v-0.6h0.8v0.5c0,0.8-0.2,1.4-0.5,1.9c-0.3,0.4-0.8,0.7-1.6,0.7C233.4,54.7,232.8,54.4,232.5,54z"/>
	<path fill="#818181" d="M239.3,46.6h-1.7V46h4.2v0.6h-1.7v7.9h-0.8V46.6z"/>
	<path fill="#818181" d="M243.5,46h0.8v8.6h-0.8V46z"/>
	<path fill="#818181" d="M247.1,54c-0.3-0.5-0.5-1.1-0.5-1.9v-3.6c0-0.8,0.2-1.5,0.5-1.9s0.9-0.7,1.7-0.7c0.8,0,1.3,0.2,1.7,0.7
		c0.3,0.4,0.5,1.1,0.5,1.9v3.6c0,0.8-0.2,1.5-0.5,1.9c-0.3,0.5-0.9,0.7-1.7,0.7C248,54.7,247.4,54.5,247.1,54z M249.9,53.6
		c0.2-0.3,0.3-0.8,0.3-1.3v-3.9c0-0.6-0.1-1-0.3-1.3s-0.6-0.4-1.1-0.4c-0.5,0-0.9,0.1-1.1,0.4c-0.2,0.3-0.3,0.7-0.3,1.3v3.9
		c0,0.6,0.1,1.1,0.3,1.4c0.2,0.3,0.6,0.5,1.1,0.5C249.3,54,249.7,53.9,249.9,53.6z"/>
	<path fill="#818181" d="M253.3,46h0.6l2.7,6.7V46h0.7v8.6h-0.6l-2.7-6.7v6.7h-0.7V46z"/>
	<path fill="#818181" d="M263.1,54c-0.3-0.5-0.5-1.1-0.5-2v-3.4c0-0.9,0.2-1.5,0.5-2s0.9-0.7,1.7-0.7c0.7,0,1.3,0.2,1.6,0.6
		s0.5,1,0.5,1.8v0.5h-0.8v-0.5c0-0.4,0-0.7-0.1-1c-0.1-0.3-0.2-0.5-0.4-0.6c-0.2-0.1-0.4-0.2-0.8-0.2c-0.4,0-0.7,0.1-0.9,0.2
		c-0.2,0.2-0.3,0.4-0.4,0.6c-0.1,0.3-0.1,0.6-0.1,1v3.6c0,0.7,0.1,1.1,0.3,1.4c0.2,0.3,0.6,0.5,1.1,0.5c0.5,0,0.8-0.2,1-0.5
		c0.2-0.3,0.3-0.8,0.3-1.4v-0.6h0.8v0.5c0,0.8-0.2,1.4-0.5,1.9c-0.3,0.4-0.8,0.7-1.6,0.7C264,54.7,263.4,54.4,263.1,54z"/>
	<path fill="#818181" d="M269.4,54c-0.3-0.5-0.5-1.1-0.5-1.9v-3.6c0-0.8,0.2-1.5,0.5-1.9s0.9-0.7,1.7-0.7c0.8,0,1.3,0.2,1.7,0.7
		c0.3,0.4,0.5,1.1,0.5,1.9v3.6c0,0.8-0.2,1.5-0.5,1.9c-0.3,0.5-0.9,0.7-1.7,0.7C270.3,54.7,269.7,54.5,269.4,54z M272.2,53.6
		c0.2-0.3,0.3-0.8,0.3-1.3v-3.9c0-0.6-0.1-1-0.3-1.3s-0.6-0.4-1.1-0.4c-0.5,0-0.9,0.1-1.1,0.4c-0.2,0.3-0.3,0.7-0.3,1.3v3.9
		c0,0.6,0.1,1.1,0.3,1.4c0.2,0.3,0.6,0.5,1.1,0.5C271.6,54,272,53.9,272.2,53.6z"/>
	<path fill="#818181" d="M275.7,46h0.8l1.7,7.4l1.7-7.4h0.8l0.2,8.6h-0.7l-0.2-6.8l-1.6,6.8h-0.5l-1.6-6.8l-0.2,6.8h-0.7L275.7,46z"
		/>
	<path fill="#818181" d="M283.3,46h2.1c0.7,0,1.2,0.2,1.6,0.6c0.3,0.4,0.5,1,0.5,1.7c0,0.7-0.2,1.2-0.5,1.6s-0.8,0.6-1.5,0.6h-1.3v4
		h-0.8V46z M285.1,49.9c0.5,0,0.9-0.1,1.1-0.4c0.2-0.2,0.3-0.7,0.3-1.3c0-0.4,0-0.8-0.1-1s-0.2-0.4-0.4-0.5s-0.5-0.1-0.9-0.1h-1v3.3
		H285.1z"/>
	<path fill="#818181" d="M290.3,46h0.8l1.8,8.6h-0.8l-0.4-2.3h-2l-0.4,2.3h-0.8L290.3,46z M291.6,51.7l-0.9-4.6l-0.9,4.6H291.6z"/>
	<path fill="#818181" d="M295,46h0.6l2.7,6.7V46h0.7v8.6h-0.6l-2.7-6.7v6.7H295V46z"/>
	<path fill="#818181" d="M302.8,51.7l-1.9-5.7h0.8l1.5,4.8l1.5-4.8h0.8l-1.9,5.7v2.8h-0.8V51.7z"/>
</g>
<g>
	<path fill-rule="evenodd" clip-rule="evenodd" fill="#1794CC" d="M46.5,2.8C71.1,2.8,91,15.3,91,30.7c0,15.4-19.9,27.9-44.5,27.9
		S2,46.2,2,30.7C2,15.3,21.9,2.8,46.5,2.8z"/>
	<g>
		<defs>
			<path id="SVGID_1_" d="M46.5,2.8C71.1,2.8,91,15.3,91,30.7c0,15.4-19.9,27.9-44.5,27.9S2,46.2,2,30.7C2,15.3,21.9,2.8,46.5,2.8z"
				/>
		</defs>
		<clipPath id="SVGID_2_">
			<use xlink:href="#SVGID_1_"  overflow="visible"/>
		</clipPath>
		<g clip-path="url(#SVGID_2_)">
			
				<path fill-rule="evenodd" clip-rule="evenodd" fill="none" stroke="#FFFFFF" stroke-width="0.9559" stroke-miterlimit="22.9256" d="
				M84.9,16.5c-7.8,3.2-22.2,5.2-38.4,5.2c-16.2,0-30.6-2.1-38.4-5.3"/>
			
				<path fill-rule="evenodd" clip-rule="evenodd" fill="none" stroke="#FFFFFF" stroke-width="0.9559" stroke-miterlimit="22.9256" d="
				M87.7,41.2c-6.8,3.9-22.8,6.6-41.2,6.6c-18.4,0-34.4-2.7-41.2-6.6"/>
			
				<path fill-rule="evenodd" clip-rule="evenodd" fill="none" stroke="#FFFFFF" stroke-width="0.9559" stroke-miterlimit="22.9256" d="
				M90.4,27.8c-4,5-22.3,8.8-43.9,8.7c-21.7-0.1-40.2-5.3-44-9"/>
			<g>
				
					<path fill-rule="evenodd" clip-rule="evenodd" fill="none" stroke="#FFFFFF" stroke-width="0.9559" stroke-miterlimit="22.9256" d="
					M45.5,58.8c11.5,0,20.8-12.6,20.8-28c0-15.4-9.3-28-20.8-28c-11.4,0-20.8,12.6-20.8,28C24.7,46.3,34,58.8,45.5,58.8z"/>
				
					<path fill-rule="evenodd" clip-rule="evenodd" fill="none" stroke="#FFFFFF" stroke-width="0.9559" stroke-miterlimit="22.9256" d="
					M45.5,58.8c3.7,0,6.7-12.6,6.7-28c0-15.4-3-28-6.7-28c-3.7,0-6.7,12.6-6.7,28C38.8,46.3,41.8,58.8,45.5,58.8z"/>
			</g>
		</g>
		<g clip-path="url(#SVGID_2_)">
			<path fill-rule="evenodd" clip-rule="evenodd" fill="#B24642" d="M64.1,2.7l0-0.1L64.1,2.7L64.1,2.7L64.1,2.7z M62.9,0.2v0.2
				h-0.2l-0.2,0.1l-0.1,0.1V1h-0.2l-0.1,0.1l-0.1,0.2v0.4l0.1,0.2l0.1,0.1L62.6,2l0.1,0.1l0.1,0.1l0.1,0.1l0.1,0.1l0.1,0.1L63,2.6
				h0.2v0.2l0.1,0.1h0.5l0.1-0.1l0.2-0.1L64,2.8l-0.1,0.1v0.3L64,3.3l0.2,0.1h0.4l0.6-0.1l0.2-0.1l0.1-0.1L65.6,3l0.1-0.1V2.4h-0.2
				V2.2l-0.1-0.1L65.4,2l-0.1-0.1l-0.1-0.1L65,1.8h-0.2h-0.2l-0.1-0.7L64.4,1l-0.7-0.1V0.8l0.2-0.1V0.2l-0.1-0.1l-0.1-0.1h-0.6
				L62.9,0.2z"/>
			<path fill-rule="evenodd" clip-rule="evenodd" fill="#B24642" d="M48.1,3.4L48.1,3.4l0.1-0.2h0.1v0.5h-0.2V3.4L48.1,3.4z
				 M47.2,2.7h0.2v0.2h-0.2V2.7L47.2,2.7z M48.7-0.3l-0.2,0.1h-0.2h-0.2l-0.2,0.1L47.8,0v0.5l0.1,0.1l-0.4,0.1l-0.2,0.1h-0.1
				l-0.2-0.1h-0.4l-0.2,0.1L46.4,1l-0.1,1v0.8L46.4,3L47,3.1l-0.1,0.7v0.7L47,4.5h0.2v0.2l0.1,0.1l0.1,0.1l0.1,0.2l0.1,0.1l0.2,0.1
				h0.3L48,5.2l0.1-1V3.9h0.2v0.2l0.2,0.1H49l0.2-0.1L49.2,4l0.1-0.1l0.1-0.1V3.5l-0.1-0.1l-0.1-0.2l-0.1-0.1L49,3.1L49,3l-0.1-0.1
				h-0.4h-0.1l0.1-0.2V2.4l-0.1-0.1l-0.1-0.6h-0.2V1.5h0.2v0.2l0.1,0.1l0.2,0.1h1.1l0.1-0.1l0.1-0.1l0.1-0.4l0.1-0.2L50,0.9l0.1-0.1
				V0.3L50,0.2L49.9,0l-0.1-0.1l-0.2-0.1l-0.2-0.1l-0.4-0.1l-0.1-0.1h-0.2v0.2H48.7z"/>
			<polygon fill-rule="evenodd" clip-rule="evenodd" fill="#B24642" points="20.6,3.3 20.4,3.4 20.3,3.5 20.2,3.5 20,3.6 19.9,3.7 
				19.9,3.8 19.8,4 19.7,4.1 19.6,4.4 19.6,4.6 19.6,5.2 19.6,5.2 19.7,5.3 20.4,5.3 20.4,5.2 20.6,5.2 20.6,5 20.8,5 20.8,5.4 
				20.7,5.5 20.6,5.9 20.6,6.3 20.7,6.4 21.3,6.5 21.3,6.8 21.4,6.8 21.5,6.9 22.1,6.9 22.2,6.8 22.4,6.8 22.4,6.7 22.7,6.6 
				22.7,6.4 23,6.4 23.1,6.3 23.2,6.2 23.3,6.1 23.3,6 23.4,5.8 23.4,5.4 23.3,5.3 23.3,5.2 23.2,5.2 23.1,5.1 23,5 23,4.8 
				22.8,4.8 22.8,4.6 22.7,4.5 22.6,4.4 22.2,4.4 22.1,4.5 22.1,5.1 22,5 21.9,4.8 21.8,4.7 21.7,4.6 21.1,4.6 21.1,4.4 21.2,3.9 
				21.3,3.7 21.3,3.4 21.2,3.3 21.1,3.2 20.7,3.2 			"/>
			<polygon fill-rule="evenodd" clip-rule="evenodd" fill="#B24642" points="71.7,5.8 71.5,5.9 71.4,6.1 71.4,6.2 71.4,6.8 
				71.4,7.1 71.5,7.2 71.7,7.3 72.1,7.3 72.2,7.2 72.4,7.1 72.4,7 72.6,6.9 72.7,6.8 72.7,6.3 72.6,6.2 72.4,6.2 72.4,6 72.4,5.7 
				72.3,5.6 71.8,5.6 71.8,5.8 			"/>
			<polygon fill-rule="evenodd" clip-rule="evenodd" fill="#B24642" points="39.5,13 39.4,13.1 39.3,13.2 39.3,13.4 39.2,13.4 
				39.2,13.8 39.3,13.8 39.3,14.1 39.4,14.2 39.5,14.6 39.6,14.7 39.7,14.8 39.8,14.9 39.9,15 40,15.1 40.1,15.1 41,15.1 41.2,15.1 
				41.3,15 41.4,14.9 41.4,14.8 41.5,14.6 41.6,14.3 41.7,14.2 41.7,13.4 41.6,13.3 41.5,13.2 41.4,13.1 40.4,13.1 40.2,13.1 
				40.1,13 39.9,12.9 39.6,12.9 			"/>
			<path fill-rule="evenodd" clip-rule="evenodd" fill="#B24642" d="M38.4-3.1h-0.2H38.4L38.4-3.1z M33.8-3.2L33.8-3.2L33.8-3.2
				L33.8-3.2z M33.8-3.2L33.8-3.2L33.8-3.2L33.8-3.2L33.8-3.2z M35.7-6.3l-0.2,0.1l-0.2,0.1L35.3-6l-0.1,0.1l-0.1,0.3L35-5.5v0.6
				l0.1,0.4l0.1,0.2l0.1,0.1L35.4-4h-0.2L35-3.9l-0.2,0.1h-0.2l-0.2-0.1L34.4-4l-0.1-0.2h-0.4V-4h-0.2l-0.1,0.1v0.5h-0.8l-0.3,0.1
				l-0.1,0.1l-0.1,0.1v0.6l0.1,0.2H32l-0.1,0.1L31.9-2l-0.1,0.1v0.4l0.1,0.2l0.1,0.5h-0.8L31-0.8l-0.1,0.1l-0.1,0.2l-0.1,0.1
				l-0.1,0.2L30.6,0v0.5l0.1,0.1l0.1,0.1l0.2,0.1h0.2v0.2v0.4L31,1.4l-0.1,0.1l-0.2,0.1l-0.1,0.1l-0.2,0.1l-0.1,0.1L30,1.9L30,2
				l-0.1,0.1l-0.1,0.1v0.6l0.1,0.1L30,3L30,3.5l0.1,0.2l0.2,0.1v0.6l0.1,0.1l0.2,0.1l0.2,0l-0.1,0.2v0.5l0.1,0.1l0.1,0.1l0.2,0.1
				L32,5.5l0.2,0.1l0.5,0.1l0.1,0.1l0.1,0.4L33,6.4v0.3L32.9,7v0.5L33,7.6l0.1,0.8l0.1,0.8l0.1,0.6l0.2,0.1l0.3,0L33.5,10l-0.2,0.1
				l-0.2,0.1v0.7l0.1,0.2l0.1,0.1l0.1,0.2h0.5v0.2h-0.5l-0.2,0.1l-0.1,0.2v0.6l0.1,0.1l0.2,0.1l0.1,0.2l0.2,0.1v0.1v0.2l0.1,0.3
				l0.1,0.7l0.1,0.1l0.1,0.2l0.1,0.8l0.1,0.7l0.1,0.2l0.1,0.9l0.1,0.1l0.1,0.1h0.4L35,17h0.2l0.1,0.5l0.1,0.1h0.6l0.1-0.1l0.1-0.1
				v-0.7L36,16.7v-0.3l0.1-0.3l0.1-0.5l0.1-0.4l0.1-0.2l0.2-0.1l0.1-0.1l0.1-0.2l0.1-0.3v-0.2V14v-0.2h0.2v-0.2H37l0.1-0.1l0.2-0.1
				v-0.2h0.2l0.1-0.2l0.2-0.1l0.1-0.5l0.2-0.1l0.4-0.1l0.2-0.1l0.1-0.1l0.2-0.1l0.2-0.1l0.1-0.2l0.1-0.1l0.2-0.1l0.1-0.1l0.1-0.1
				l0.3-0.1l0.1-0.1l0.1-0.1l0.1-0.1l0.1-0.1v-0.5h0.2V9.6l-0.1-0.5L40,9l-0.1-0.1h-0.2V8.7l-0.2-0.1l-0.1-0.2V8.2l0-0.2l0.1,0.1
				l0.1,0.1l0.2,0.1h0.3l0.1-0.1l0.1-0.1L40.4,8V7.7h-0.2V7.5h0.3l0.2-0.1l0.1-0.1V6.6l-0.2-0.1l-0.2-0.1V6.3V6h0.2V5.5l-0.1-0.3
				l-0.1-0.1l-0.1-0.1L40.3,5H40l0-0.2l0.2,0.1h0.4l0.2-0.1l0.1-0.1L41,4.6l0.1-0.1V4h-0.2V3.8l-0.2-0.1l-0.1-0.1h-0.2V3.4l-0.2-0.1
				L40.2,3V2.9V2.3l-0.1-0.5V1.8V1.2l0.3,0.1h0.6l0.2-0.1l0.1-0.1V0.5l-0.1-0.1l-0.2-0.1L41,0.2l-0.2-0.1h0.3l0.1-0.1L41.4,0
				l0.1-0.1v-0.3h0.2l0.1-0.2v-0.5h0.2L42-1.3v-0.5l-0.1-0.1l-0.1-0.1L41.7-2l-0.5-0.1l-0.1-0.3l-0.1-0.1h-0.5l-0.5,0.1l-0.1,0.1
				L40-2.1L39.8-2l-0.1,0.3l-0.1,0.1l-0.1,0.2l-0.2,0.1l-0.2,0.1h-0.1l0.1-0.1l0.1-0.1l0.1-0.1l0.1-0.1v-0.3h0.2l0.1-0.3v-0.4
				l-0.1-0.2l-0.2-0.1h-0.3h-0.2L39-3.1h-0.6L39-3.2v-0.2h0.5l0.1-0.2v-0.8l-0.1-0.1l-0.2-0.1l-0.1-0.1l-0.1-0.1v-0.1L39.2-5
				l0.1-0.3l0.1-0.1v-0.1l-0.1-0.1l-0.1-0.1l-0.1-0.1L39.1-6L39-6.1l-0.8-0.1L38-6.3l-0.1-0.1l-0.2-0.1h-1.9L35.7-6.3z"/>
			<polygon fill-rule="evenodd" clip-rule="evenodd" fill="#B24642" points="28.8,30.1 28.7,30.2 28.7,30.3 28.6,30.5 28.6,30.8 
				28.7,31.1 29,31.2 30.2,31.2 30.4,31.1 30.5,31 30.6,30.9 30.7,30.8 30.7,30.4 30.6,30.3 30.4,30.2 30.3,30.1 29.7,30 29,30 			
				"/>
			<polygon fill-rule="evenodd" clip-rule="evenodd" fill="#B24642" points="67.4,30.7 67.3,31 67.3,31.5 67.3,31.7 67.3,31.8 
				67.4,31.9 67.5,32 67.6,32.1 67.7,32.1 67.6,32.3 67.5,32.4 67.3,32.5 67.1,32.6 67.1,32.8 66.9,32.8 66.8,32.9 66.7,33 
				66.6,33.1 66.6,33.5 66.4,33.6 66.3,33.7 66.2,34 66.1,34.1 66.1,34.2 65.9,34.3 65.7,34.4 65.7,34.5 65.6,34.6 65.6,34.8 
				65.1,34.8 65.1,34.9 65,34.9 65,35.4 65.1,35.5 65.1,36 65.2,36.3 65.3,36.4 65.4,36.5 65.5,36.6 65.7,36.6 66.1,36.7 66.3,36.7 
				66.6,36.6 66.8,36.6 66.9,36.4 67,36.3 67.1,36.2 67.1,36.9 67.2,37 67.6,37 67.9,36.9 68,36.8 68.1,36.7 68.2,36.6 68.3,36.6 
				68.3,35.9 68.1,35.9 68.1,35.6 68.6,35.6 68.7,35.5 68.7,34.9 68.6,34.9 67.7,34.9 67.5,34.9 67.3,35 67.3,34.6 67.4,34.5 
				67.4,34.2 67.3,34 67.3,33.8 67.2,33.7 67.2,33.6 67.3,33.5 67.4,33.4 67.5,33.3 67.5,33.2 67.6,33.2 67.9,33.1 67.7,33.2 
				67.7,33.8 67.9,33.9 68,34 68.1,34.1 68.3,34.2 68.7,34.2 68.8,34.1 68.9,34 68.9,33.9 69,33.8 69.1,33.7 69.1,33.3 69,33.2 
				68.9,33.1 68.9,33 68.4,32.9 68.4,32.5 68.7,32.5 68.7,31.8 68.6,31.7 68.4,31.7 68.4,31.6 68.4,31.3 68.4,31 68.3,30.7 68,30.6 
				67.6,30.6 			"/>
			<path fill-rule="evenodd" clip-rule="evenodd" fill="#B24642" d="M26.2,9.5l0.1,0.2l0.2,0.1l0.2,0.1l0.1,0.1l0.1,0.1l0.1,0.2
				l0.2,0.1v0.1v0.7h-0.2v-0.2l-0.1-0.1h-0.6v-0.2l-0.1-0.5h-0.2V9.9l-0.1-1.4H26l0.1-0.1l0.1-0.2v0.5v0.3V9.5L26.2,9.5z M26.2,7.9
				C26.3,7.7,26,8.1,26.2,7.9L26.2,7.9z M24.9,4L24.9,4l-0.1,0.3l-0.1-0.1h-0.2l-0.2,0.1l-0.2,0.1L24,4.6l-0.7,0.1l-0.2,0.1v0.3
				l0.1,0.2l0.1,0.1l0.1,0.1l0.1,0.1l0.1,0.1l0.1,0.3L23.7,6L24,6.1l0.1,0.1l0.2,0.1h0.5l0.1-0.1L24.9,6V5.8V5.2l0-0.4l0.1,0.1
				L25.5,5l0.1,0.1h0.2v1.3l0.1,0.2l-0.2,0.1l-0.2,0.1l-0.2,0.1l-0.2,0.1L25.1,7L25,7.1l-0.1,0.2l0,0.3l0-0.2l-0.2-0.1l-0.3-0.1
				h-0.5l-0.2,0.1l-0.1,0.1l-0.1,0.5L23.5,8v0.7l0.1,0.1l0.1,0.2L23.7,9l0.1,0.1l0.1,0.1L24,9.3L24,9.4l0.1,0.3l0.1,0.1l0.3,0.1
				l0.2,0.1l0.1,0.2l0.1,0.1l0.1,0.2l0.1,0.1l0.2,0.1v0.6L25,11.3l-0.1,0.1l-0.2,0.1h-1.1l0.1-0.1v-0.7H24l0.1-0.1l0.1-0.1v-0.2
				L24,10.2L24,10.1l-0.2-0.1L23.7,10l-0.2-0.1l-0.1-0.1l-0.1-0.1h-0.2V9.5L23,9.3h-0.2V9.1L22.8,9l-0.1-0.3l-0.1-0.1l-0.1-0.1
				l-0.1-0.2l-0.1-0.1l-0.1-0.2L22.3,8l-0.2-0.1L22,7.8h-0.5V7.5h-0.2V7.2l-0.1-0.1L21.1,7L21,6.9l-0.3-0.1l-0.1-0.1l-0.2-0.1h-1
				l-0.1,0.1l-0.1,0.1L19.2,7l-0.1,0.5l-0.1,0.3L19,8.5v0.4l0.1,0.5h0.2v0.3l0.2,0.1h0.5l0.2-0.1l0.2-0.1l0.1-0.1l0.1,0.2l0.1,0.1
				l0.1,0.2l0.1,0.1l0.2,0.1l-0.1,0.1v0.2l-0.3-0.1h-0.2v-0.2h-0.2V10L20,9.9h-0.5L19.4,10l-0.2,0.1h-0.2L18.9,10h-0.5l-0.2,0.1
				l-0.2,0.1l-0.2,0.1l-0.2,0.1l-0.2,0.1l-0.2,0.1l-0.1,0.1l-0.4,0.1l-0.1-0.1l-0.1-0.1l-0.5-0.1l-0.3-0.1l-0.1-0.1l-0.1-0.1
				l-0.1-0.1L15.4,10l-0.6-0.1l-0.2-0.1l-0.3-0.1l-0.8-0.1l-0.1-0.1h-0.2V9.3h-0.2v0.2h-0.7l-0.2,0.1l-0.2,0.1L12,9.8l-0.1,0.1
				L11.8,10l-0.1,0.2l-0.1,0.1l-0.1,0.1l-0.2,0.1l-0.2,0.1l-0.1,0.3L11,10.9L10.8,11l-0.1,0.1l-0.1,0.1l-0.1,0.1v0.4l0.1,0.1
				l0.1,0.1l0.1,0.2l0.1,0.2l0.2,0.1l0.2,0.1l0.1,0.2h-0.5l-0.2,0.1v1.1l0.1,0.1l0.1,0.1l0.2,0.1l0.1,0.1l0.7,0l-0.1,0.3l-0.2,0.1
				l-0.1,0.1l-0.1,0.1l-0.1,0.1v0.4H11L11,15.3v0.8h0.2v0.4l0.1,0.2l0.1,0.1l0.1,0.1l0.2,0.1l0.2,0.1l0.1,0.1l0.3,0.1l0.2,0
				l-0.1,0.4l-0.1,0.2L12,17.9L12,18l-0.1,0.1l-0.1,0.1l-0.2,0.1l-0.2,0.1l-0.2,0.1L11,18.5l-0.1,0.1l-0.1,0.1l-0.1,0.1l-0.2,0.1
				v0.5l0.1,0.1h0.7l0.1-0.1l0.1-0.1l0.2-0.1l0.2-0.1l0.2-0.1l0.2-0.1l0.2-0.1l0.1-0.1l0.1-0.1l0.2-0.1l0.1-0.2v-0.2h0.2L13,18v-0.2
				h0.2l0.1-0.1l0.2-0.1l0.1-0.2l0.1-0.1l0.1-0.1l0.1-0.1l0.1-0.1l0.5-0.1l0.2-0.1l0.2-0.1l0.2-0.1l0.2-0.1h0.1l0.2,0.1l0.2,0.1
				l0.8,0.1l0.1,0.1l0.1,0.1l0.1,0.1l0.1,0.3h0.2v0.2h0.7v0.2l0.1,0.1l0.1,0.1h0.2v0.2l0.1,0.2l0.1,0.1l0.1,1l0.1,0.1l0.2,0.1
				l0.1,0.4l0.1,0.1l0.2,0.1l0.1,0.3l0.1,0.1l0.1,0.1l0.1,0.1l0.1,0.2l0.2,0.1l0.1,1.1v0.8v1.3l0.1,0.2l0.1,0.4l0.1,0.3l0.1,0.2
				l0.1,0.1l0.1,0.2l0.1,0.1l0.1,0.4h0.2v0.3l0.1,0.1l0.2,0.1l0.1,0.1h0.2v0.2l0.2,0.1l0.1,0.5l0.1,0.2l0.1,0.1l0.1,0.2l0.1,0.4
				l0.1,0.1l0.1,0.1l0.1,0.1l0.1,0.1l0.1,0.1l0.1,0.3l0.1,0.1l0.1,0.1l0.1,0.1l0.2,0.1l0.1,0.1h0.5l0.2-0.1l0.1-0.1l0.1,0.2l0.1,0.1
				l0.1,0.1l0.1,0.5l0.1,0.1l0.1,0.3h0.2v0.2l0.2,0.1h0.2v0.2l0.2,0.1l0.1,0.1l0.2,0.1l0.2,0.1l0.2,0.1l0.8,0.1h0.2v0.2l0.2,0.1h0.2
				v0.2l0.2,0.1l0.2,0.1l0.1,0.1l0.1,0.1l0.1,0.1l0.2,0.1l0.1,0.2l0.1,0.1l0.1,0.2l0.1,0.1l0.2,0.1l0.1,0.1l0.1,0.1l0.2,0.1l0.2,0.1
				h0.6v0.2v0.2L28,34.5l-0.2,0.1l-0.1,0.1v0.2h-0.2l-0.1,0.3l-0.1,0.1l-0.1,0.5l-0.1,0.1v1h0.2V37l0.1,0.2l0.1,0.3l0.1,0.1l0.1,0.3
				l0.2,0.1l0.1,0.1l0.1,0.1l0.1,0.1l0.1,0.6l0.1,0.2h0.2v0.2l0.1,0.2l0.1,0.1l0.1,0.2l0.1,0.1l0.3,0.1l0.1,0.1l0.1,0.5l0.1,0.3h0.2
				v0.2h-0.2l-0.1,0.4l-0.1,0.8l-0.1,1L29,43.4v0.4v0.3l-0.1,0.1l-0.1,0.6L28.7,45l-0.1,0.2l-0.1,0.5v1l0.1,0.2V47l-0.1,0.6L28.5,48
				v1.7l0.1,0.9l0.1,0.1l0.2,0.1l0.1,0.1L29,51l0.1,0.1l0.1,0.3l0.1,0.1l0.2,0.1l0.1,0.1l0.1,0.1h0.8l0.2-0.1l0.1-0.1v-0.4L30.5,51
				l-0.1-0.1l-0.1-0.2l-0.1-0.1h-0.2l0.1-0.9l0.1-0.1l0.1-0.1l0.1-0.2l0.1-0.2l0.1-0.1l0.1-0.1v-0.7V48l0.1-0.2l0.1-0.1l0.1-0.1
				v-0.3H31l0.1-0.6l0.2-0.1l0.2-0.1l0.1-0.1l0.1-0.3l0.1-0.1v-0.2h0.6v-0.5h0.2l0.1-0.1l0.1-0.1l0.1-0.2l0.1-0.1l0.2-0.1l0.2-0.1
				l0.1-0.1v-0.4h0.2l0.1-0.1l0.1-0.2l0.1-0.1l0.1-0.1l0.1-0.3l0.1-0.1v-0.3h0.2l0.1-0.1l0.1-0.1l0.1-0.2l0.1-0.7l0.1-0.1l0.1-0.1
				l0.2-0.1l0.1-0.1v-0.2h0.2l0.2-0.1v-0.2h0.5l0.1-0.1l0.1-0.2l0.1-0.1l0.1-0.2l0.1-0.2l0.1-0.1l0.1-0.1l0.1-0.1l0.1-0.3l0.1-0.7
				v-0.4v-0.2l0.1-0.1l0.1-0.1l0.1-0.1l0.1-0.1l0.1-0.1l0.1-0.1l0.1-0.1v-0.2H37v-0.6h-0.2v-0.6l-0.1-0.1l-0.1-0.1l-0.2-0.1
				l-0.1-0.1h-0.2v-0.2l-0.1-0.1L36,36L36,35.9h-0.2v-0.2l-0.2-0.1l-0.2-0.1L35,35.4l-0.2-0.1l-0.2-0.1l-0.4-0.1l-0.1-0.2L34,34.7
				l-0.2-0.1l-0.1-0.5L33.7,34l-0.1-0.2l-0.1-0.1l-0.2-0.1l-0.8-0.1h-0.3v-0.2l-0.1-0.2L32,33.1L31.9,33l-0.2-0.1l-0.1-0.1l-0.1-0.2
				l-0.3-0.1l-0.7-0.1l-0.4-0.1L30,32.2h-0.3V32h-0.5v0.2h-0.3l-0.2,0.1l-0.1,0.1l-0.2,0.1l-0.2,0.1l-0.1,0.1h-0.2L28,32.6h-0.4
				v-0.8l-0.1-0.4h-0.2v-0.2l-0.2-0.1L26.8,31l-0.1-0.2v-0.2v-0.4h0.2v-0.4l-0.1-0.1l-0.1-0.1l-0.2-0.1H26l-0.2,0.1l-0.1,0.2
				L25.6,30L25.6,30h-0.5L24.9,30l-0.1-0.1V29v-0.2H25l0.1-0.5l0.1-0.2l0.5-0.1h0.2H26l0.4-0.1c0.1-0.3,0.5-0.3,0.6,0l0.2,0.1
				l0.1,0.6l0.1,0.1l0.1,0.1l-0.1,0.1L27.3,29l-0.2,0.1L27,29.2v0.5l0.2,0.1l0.2,0.1l0.2,0.1l0.3,0.1l0.3,0.1h0.4l0.2-0.1l0.1-0.1
				v-0.3l-0.1-0.2l-0.1-0.1l-0.2-0.1l-0.2-0.1l-0.2,0l0.1-0.2l0.1-0.2v-0.4V27l0.1-0.1v-0.2h0.2l0.1-0.1v-0.2h0.2l0.1-0.1l0.1-0.1
				l0.2-0.1l0.1-0.4l0.1-0.2l0.1-0.4l0.2-0.1l0.1-0.1l0.1-0.1l0.1-0.2l0.1-0.1l0.2-0.1l0.1-0.1l0.2-0.1l0.1-0.5l0.1-0.1l0.1-0.2
				l0.2-0.1l0.3-0.1v0.2h0.4l0.2-0.1l0.1-0.1l0.1-0.2l0.1-0.1l0.1-0.1v-0.2h0.2v-0.5h-0.2v-0.2l-0.2-0.1l-0.1-0.3v-0.1l0.1-0.3H32
				V22l0.1,0.1l0.1,0.1l0.2,0.1l0.3,0.1l0.1,0.1h0.7l0.1-0.1l0.1-0.1l0.1-0.1l0.1-0.1v-0.7l-0.1-0.2l-0.1-0.1L33.5,21l-0.1-0.1
				l-0.1-0.1l-0.1-0.1l-0.1-0.1v-0.3V20l-0.1-0.5l-0.1-0.1L33,19.1L32.9,19l-0.1-0.2l-0.1-0.1l-0.1-0.1l-0.2-0.1l-0.1-0.1l-0.1-0.1
				l-0.2-0.1l-0.1-0.2L32,17.9l-0.1-0.4l-0.1-0.4l-0.1-0.3l-0.1-0.4l-0.1-0.4L31.6,16H31l-0.1,0.1v0.5h-0.2l-0.2,0.1v-0.6L30.4,16
				l-0.2-0.1l-0.2-0.1L30,15.7L30,15.6l-0.1-0.1l-0.1-0.1l-0.1-0.1l-0.2-0.1l-0.2-0.1l-0.2-0.1h-0.6l-0.1,0.1l-0.1,0.1l-0.1,0.4
				l-0.1,0.1v0.2l0.1,0.1l-0.1,0.1l-0.1,0.1v1.3l0.1,0.1h0.2v0.2v0.1l-0.1,0.4l-0.1,0.1l-0.1,0.1L28.1,19l0,0.6l0-0.2L28,19.1
				l-0.1-0.3h-0.2v-0.2l-0.1-0.1l-0.3-0.1l-0.2-0.1l-0.1-0.1h-0.3v-0.2L26.6,18l-0.1-0.1l-0.1-0.1l-0.1-0.1l-0.1-0.2l-0.2-0.1
				l-0.1-0.2L26,17.1h-0.2v-0.3l-0.1-0.1l-0.1-0.1l-0.1-0.1L25.6,16v-0.1l0.1-0.1l0.1-0.1l0.1-0.2l0.1-0.1l0.1-0.1l0.2-0.1v-0.2h0.2
				l0.2-0.1l0.1-0.1l0.2-0.1l0.1,0.1l0.2,0.1H27v0.2l0.2,0.1l0.2,0.1h0.2l0.1-0.1l0.1-0.1l0.1-0.1l0.5-0.1l0.1-0.1v-0.6l-0.1-0.1
				l-0.1-0.1L28.1,14L28,13.9l-0.1-0.1l-0.1-0.1l-0.1-0.1l-0.1-0.1l-0.1-0.1l-0.1-0.1l-0.2-0.1l-0.2-0.1l0.3-0.1l0.2-0.1l0.1-0.2
				l0.2-0.1l0.1-0.2l0.1-0.1l0.2-0.1v-0.7l-0.1-0.1L28,11.5v-0.3v-0.5l-0.1-0.2l0.5,0.1l0.1,0.2l0.1,0.1l0.1,0.1l0.1,0.1l0.1,0.2
				l0.1,0.2l0.2,0.1l0.2,0.1l0.2,0.1l0.1,0.1l0.1,0.2v0.1l-0.1,0.1l-0.1,0.1v0.6h-0.2L29.1,13L29,13.1l-0.4,0.1l-0.2,0.1l-0.1,0.1
				l-0.1,0.1l-0.1,0.1V14h0.2v0.2l0.2,0.1h0.8v0.2l0.1,0.2l0.1,0.2l0.1,0.4l0.2,0.1l0.2,0.1l0.2,0.1l0.2,0.1l0.2,0.1l0.1,0.1h0.8
				v-0.6h0.2l0.1-0.3V14h0.2l0.1-0.1v-0.5H32l0.1-0.1l0.1-0.3v-0.5l-0.1-0.3l-0.2-0.1l-0.1-0.1L31.8,12l-0.1-0.1l-0.1-0.1l-0.1-0.2
				l-0.2-0.1l-0.1-0.2l-0.1-0.2l-0.1-0.1L31.1,11v-0.1v-0.4L31,10.2l-0.1-0.1L30.9,10l-0.1-0.2l-0.1-0.1l-0.1-0.1l-0.2-0.1l-0.1-0.1
				l-0.1-0.1l-0.1-0.1h-0.2V9l-0.2-0.1h-0.2V8.7l-0.1-0.2l-0.2-0.1l-0.1-0.1l-0.1-0.1l-0.2-0.1l-0.1-0.4H29V7.6l-0.1-0.1l-0.1-0.1
				l-0.1-0.1l-0.2-0.1l-0.5-0.1L27.8,7h-0.5l-0.5,0.1l-0.2,0.1L26.5,7l-0.1-0.1l-0.1-0.1h0.1l0.2,0.1L27,7h0.2L28,6.9l0.2-0.1
				l0.2-0.1V6.4h0.2l0.1-0.2V5.6l-0.1-0.1l-0.2-0.1l-0.1-0.1l-0.1-0.1h-0.6H27l-0.3-0.1l-0.1-0.3l-0.1-0.1l-0.1-0.1l-0.1-0.1
				l-0.1-0.2l-0.1-0.1l-0.1-0.1l-0.1-0.1L25.8,4h-0.3V3.8h-0.4V4H24.9z"/>
			<path fill-rule="evenodd" clip-rule="evenodd" fill="#B24642" d="M63.9,36L63.9,36L63.9,36L63.9,36L63.9,36z M63.8,35.8l0.1,0.2
				L63.8,35.8z M63.8,35.8L63.8,35.8L63.8,35.8L63.8,35.8L63.8,35.8z M63.6,35.5C63.8,35.3,63.5,35.7,63.6,35.5L63.6,35.5z
				 M63.2,34.3L63.2,34.3L63.2,34.3L63.2,34.3L63.2,34.3z M51.5,30.7l0.2,0.1l0.1,0.1l0.1,0.2l0.1,0.3l0.1,0.4l-0.2-0.1l-0.1-0.2
				l-0.1-0.2l-0.1-0.2V30.7L51.5,30.7L51.5,30.7z M51.2,29.9C51.3,29.7,51,30,51.2,29.9L51.2,29.9z M55.3,29.5L55.3,29.5L55.3,29.5
				L55.3,29.5L55.3,29.5z M50.9,29.3C50.9,28.9,50.9,29.7,50.9,29.3L50.9,29.3z M67.6,29C67.8,28.8,67.5,29.2,67.6,29L67.6,29z
				 M46.5,26.1v-0.2h0.4l0.2-0.1l0.1-0.1l0.1-0.1l0.2-0.1l0.1-0.1l0-0.2l0.3,0.1l0.1,0.5l0.1,0.1l0.2,0.1h0.2v0.2l0.1,0.1h0.2
				l0.1-0.1V26h0.2l0.1-0.2l0.1-0.1l0.1-0.1l0.1,0.1l0.1,0.2l0.1,0.1l0.1,0.2l0.2,0.1l1.1,0l-0.1,0.2L50.4,27l-0.2,0.1h-0.1h-0.2
				l-0.1,0.1l-0.1-0.1L49.6,27l-0.5-0.1l-0.5-0.1l-0.1-0.1H48v0.2h-0.2L47.7,27v0.3h-0.5v-0.2l-0.1-0.2l-0.3-0.1l-0.2-0.1l-0.1-0.4
				L46.5,26.1L46.5,26.1L46.5,26.1z M46.2,25L46.2,25l0.3-0.1l-0.2-0.1l-0.2-0.1l-0.2-0.1L46,24.6l-0.1-0.1l-0.1-0.1L45.8,24H45
				l-0.2,0.1h-0.2v0.4l-0.1,0.1l-0.1,0.1l-0.2,0.1l-0.1,0.1l-0.1,0.3l-0.1,0.3l2,0.1L46.2,25L46.2,25L46.2,25z M47.4,24.1L47.4,24.1
				L47.4,24.1L47.4,24.1z M47.4,24.1L47.4,24.1L47.4,24.1L47.4,24.1L47.4,24.1z M43.8,20.2l0.1,0.1L43.8,20.2l-0.2-0.1L43.5,20
				l0.1-0.1l0.1-0.1v-0.4h0.2v0.2v0.1V20.2L43.8,20.2z M46.4,18L46.4,18L46.4,18L46.4,18z M46.4,18L46.4,18L46.4,18L46.4,18z
				 M48.4,17.2h0.2V17l0.1-0.1h-0.2l-0.2-0.1v-0.2L48,16.7L48,16.9l-0.1,0.2l-0.1,0.1l-0.1,0.1l-0.1,0.5L47.6,18l-0.1,0.5l-0.1,0.2
				l-0.1,0.1l-0.2,0.1l-0.2,0.1h-0.6v-0.3L46.4,19l0.4,0h0.2l0.5-0.1l0.4-0.1l0.2-0.1l0.1-0.2l0.1-0.8h0.2v-0.3L48.4,17.2L48.4,17.2
				L48.4,17.2z M48.7,16.9l0.2-0.1L48.7,16.9L48.7,16.9z M47.9,15.6l0.1-0.2l0,0.8l0-0.3V15.6L47.9,15.6z M48.5,14.4
				C48.5,14,48.5,14.8,48.5,14.4L48.5,14.4z M51.6,13.5C51.8,13.4,51.5,13.7,51.6,13.5L51.6,13.5z M51.2,13.5
				C51.2,13.4,51.4,13.7,51.2,13.5L51.2,13.5C51.2,13.6,51.1,13.6,51.2,13.5L51.2,13.5z M52.5,12.4v0.4V12.4L52.5,12.4z M54.9,9.2
				C55,9,54.7,9.4,54.9,9.2L54.9,9.2z M55.2,8l-0.1,0.4l0.1-0.6l0.1-0.1l0.1-0.2l-0.1,0.3L55.2,8L55.2,8z M55.5,7.2L55.5,7.2
				l0.1-0.3V6.6l-0.1,0.4V7.2l-0.2,0.3l0.1-0.1L55.5,7.2L55.5,7.2z M55.6,6.5L55.6,6.5L55.6,6.5l0.2-0.2L55.6,6.5L55.6,6.5L55.6,6.5
				z M55.8,6.3L55.8,6.3l0-0.1L55.8,6.3L55.8,6.3z M55.9,6.1C56.1,5.9,55.8,6.3,55.9,6.1L55.9,6.1z M56.3,6l-0.2,0.1L56.3,6L56.3,6z
				 M56.3,5.9L56.3,5.9l-0.1-0.2h0.2h0.1v0.2H56.3L56.3,5.9z M64.8,3.5L64.8,3.5l-0.2,0.2l-0.1,0.1l-0.1,0.1l-0.1,0.1L64.3,4
				l-0.1,0.2l-0.1,0.1l-0.1,0.1V5h-0.2h-0.7l-0.3-0.1h-0.6L62.2,5l-0.1,0.1l-0.2,0.1l-0.1,0.2l-0.1,0.1l-0.1,0.2l-0.1,0.2l-0.2,0.1
				L61.3,6l-0.1,0.1l-0.2,0.1L61,6.3l-0.1,0.1l-0.1,0.2l-0.1,0.1v0.7l0.1,0.2h-0.2v0.2h-0.2l-0.2,0.1l-0.1,0.1v0.2H60l-0.1,0.1v0.5
				L60,8.7l0.2,0.1l-0.3,0.1L59.6,9h-0.2h-0.5l-0.1,0.1l-0.1-0.2V8.7V8.5l-0.1-0.5l-0.1-0.2l-0.1-0.1h-0.5L58,7.9L57.9,8l-0.1,0.4
				l-0.1,0.2l-0.1,0.1v0.3h-0.2l-0.1,0.2v0.2h-0.2l-0.1,0.2L57.1,10v0.6l-0.3-0.1l-0.5-0.1l-0.1-0.1L56,10.1l-0.3-0.1V9.8l-0.1-0.1
				l-0.1-0.1l-0.1-0.3V9.2V8.7l0.1-0.1l0.1-0.2l0.1-0.3l0.1-0.1l0.1-0.2l0.1-0.2L56,7.5l0.1-0.4V6.8h0.3l0.2-0.1l0.1-0.1l0.1-0.1
				l0.1-0.1l0.1-0.1V6.1H57L57.1,6l0.1-0.2l0.2-0.1l0.3-0.1l0.1-0.1l0.1-0.1V4.7l-0.1-0.4h-0.5l-0.1,0.1l-0.1,0.2l-0.1,0.2l-0.8,0.1
				L56.2,5L56,5.1l-0.1,0.1l-0.1,0.1v0.3h-0.2l-0.2,0.1v0.2h-0.2l-0.1,0.1l-0.1,0.2L55,6.2L55,6.4l-0.1,0.6l-0.1,0.2l-0.1,0.3
				l-0.1,0.1l-0.1,0.4l-0.1,0.6l-0.1,0.1l-0.1,0.1L54.3,9v0.4l0.1,0.3l0.1,0.1l0.1,0.1l0.1,0.1l0.1,0.1l0.2,0.1l0.1,0.1l0.2,0.1
				l0.2,0.1v0.2l0.1,0.1l0.1,0.1l0.1,0.1l0.1,0.1l0.2,0.1l0.1,0.3h-1.4l-0.3,0.1l-0.3,0.1l-0.1,0.1l-0.1,0.3L53.6,12v0.2h-0.2v-0.4
				l-0.1-0.1l-0.1-0.1l-0.1-0.1l-0.3-0.1h-0.4l-0.1,0.1l0,0.8l-0.1-0.1l-0.2-0.1L52.1,12L52,11.9l-0.1-0.2l-0.1-0.1l-0.2-0.1
				l-0.2-0.1l-0.1-0.1l-0.1-0.1l-0.1-0.1h-0.2V11L51,10.9l-0.1-0.1l-0.2-0.1l-0.1-0.1l-0.1-0.1h-0.2v-0.2l-0.1-0.1l-0.1-0.1h-0.2
				V9.9L50,9.8h-1.1l-0.3,0.1L48.4,10l-0.2,0.1v0.3h-0.2L48,10.4l-0.2,0.1l-0.1,0.1l-0.1,0.1l-0.2,0.1l-0.1,0.1L47.4,11v0.6h-0.2
				l-0.1,0.1l-0.1,0.1L47,11.9L46.9,12l-0.2,0.1l-0.1,0.1l-0.1,0.1l-0.1,0.2l-0.1,0.4l-0.1,0.3l-0.1,0.6l-0.1,0.1l-0.1,0.1L46,14
				l-0.1,0.1l-0.1,0.2l-0.1,0.4v0.2h-0.2L45.4,15l-0.2,0.1L45,15.1l-0.1,0.1v1.6l0.1,0.6l0.1,0.2l0.1,0.1l0.2,0.1h0.6l0.2-0.1h0.1
				l0.1,0.1l0.1,0.1h-0.5v0.2h-0.2l-0.1,0.2l-0.1,0.3l-0.1,0.4l-0.1,0.2v0.3H45l-0.1,0.1l-0.1,0.1l-0.1,0.1l-0.1,0.1l-0.1,0.1l0,0.2
				L44.5,20l-0.1-0.5l-0.1-0.1l-0.1-0.1L44.2,19l-0.1-0.4L44,18.5v-0.3V18l-0.1-0.2l-0.1-0.1l-0.1-0.2l-0.1-0.3l-0.1-0.1h-0.5
				L43,17.2L43,17.5l-0.1,0.1l-0.1,0.2l-0.1,0.1L42.7,18v0.5h0.2v0.2l0.2,0.1h-0.5l-0.2,0.1l-0.1,0.1L42,19L42,19.1l-0.1,0.6V20
				l0.1,0.2l0.2,0.1h0.5h0.2v0.2v0.2h-0.2V21l0.2,0.1h0.3v0.2h0.2l0.1-0.1l0.2-0.1h0.1l-0.2,0.1l-0.1,0.1l-0.2,0.1l-0.2,0.1L43,21.6
				l-0.1,0.2v0.4l0.1,0.1l0.1,0.1l0.1,0.1l0.1,0.1h0.2v0.4h0.2v0.3H43h-0.3h-0.3l-0.2,0.1l-0.1,0.1L42,23.5L42,23.7V24l0.1,0.1v0.2
				v1.3l0.1,0.2l0.1,0.1l0.2,0.1h0.2v0.2h-0.2l-0.2,0.1l-0.1,0.1l-0.2,0.1L42,26.7L42,26.8l-0.1,0.5l-0.1,0.6L41.7,28l-0.4,0.1
				l-0.1,0.1l-0.1,0.2l-0.1,0.2L41,28.8l-0.1,0.1v0.3h-0.2l-0.1,0.1l-0.1,0.5l-0.1,0.1v0.6v0.8l-0.1,0.1l-0.1,0.2V32l0.1,0.1
				l0.1,0.3l0.1,0.2l0.1,0.2l0.1,0.1l0.1,0.1H41v0.2l0.1,0.2l0.1,0.1l0.1,0.1l0.1,0.1l0.1,0.1l0.1,0.1l0.1,0.1l0.1,0.1l0.1,0.1
				l0.2,0.1l0.1,0.1l0.2,0.1l0.2,0.1h1.6l0.2-0.1l0.2-0.1l0.2-0.1h0.1l0.2,0.1l0.1,0.2h0.5v0.3v0.8V36l0.1,0.3l0.1,0.1h0.2v0.2
				l0.1,0.4l0.1,0.4l0.1,0.2l0.1,0.4l0.1,1H46L45.9,39l-0.1,0.1l-0.1,0.2v0.5l0.1,0.4l0.1,0.5l0.1,0.1l0.1,0.2l0.1,0.2l0.1,0.1
				l0.1,0.1l0.1,0.9l0.1,0.2l0.1,0.4l0.1,0.2h0.2v0.2l0.1,0.1l0.1,0.1v0.1v0.8l0.1,0.1l0.1,0.2l0.1,0.1h1.3l0.2-0.1v-0.3h0.2
				l0.1-0.1l0.1-0.1l0.2-0.1l0.2-0.1l0.1-0.1l0.2-0.1v-0.2h0.2l0.1-0.1l0.1-0.1l0.1-0.1l0.1-0.1l0.1-0.1l0.1-0.4l0.1-0.1l0.1-0.2
				l0.1-0.2l0.1-0.3l0.1-0.2l0.2-0.1l0.1-0.2v-0.7v-0.3v-0.3H51l0.1-0.1l0.1-0.2v-0.2h0.2l0.1-0.1l0.1-0.2l0.2-0.1l0.1-0.2v-1
				l-0.1-0.5v-0.3v-0.7v-0.1l0.1-0.1v-0.2h0.2l0.1-0.1l0.1-0.1l0.1-0.2v-0.4h0.2l0.1-0.1l0.1-0.1l0.2-0.1l0.1-0.1l0.2-0.1l0.1-0.1
				l0.1-0.1l0.1-0.2l0.1-0.1v-0.2h0.2l0.1-0.1l0.1-0.1l0.2-0.1l0.1-0.5l0.1-0.1l0.1-0.2l0.1-0.1l0.1-0.3v-0.6h-0.7h-0.3h-0.6v-0.1
				h0.8l0.2-0.1l0.2-0.1l0.1-0.2l0.3-0.1l0.2-0.1l0.2-0.1l0.1-0.1v-0.2h0.2l0.1-0.1l0.1-0.1l0.2-0.1l0.1-0.1L55,31l0.1-0.1l0.2-0.1
				l0.1-0.2l0.1-0.3l0.1-0.2v-0.3l-0.1-0.2l-0.1-0.2h0.5h0.9l0.1,0.1l0.1,0.1h0.2v0.2l0.1,0.1l0.1,0.1l0.1,0.2l0.1,0.1l0.1,0.1
				l0.3,0.1l0.2,0.1V31v0.2l0.1,0.3l0.1,0.1l0.1,0.2l0.1,0.4l0.1,0.5l0.1,0.2l0.1,0.2l0.1,0.4l0.1,0.2l0.1,0.1l0.1,0.1h0.5v0.5
				l0.2,0.1h0.3l0.1-0.1l0.1-0.1v-0.7l-0.1-0.2L59.7,33v-0.2l0.1-0.1v-0.2v-0.4l0.1-0.5v-0.2h0.2l0.1-0.1l0.1-0.1l0.2-0.1l0.1-0.1
				l0.1-0.1l0.2-0.1l0.2-0.1l0.1-0.1l0.2-0.1h0.7l0.1,0.4l0.1,0.1l0.1,0.1l0.1,0.2l0.1,0.3l0.1,0.1l0.1,0.1l0.2,0.1h0.2v0.5l0.1,1.4
				l0.1,0.1h0.2v0.2l0.1,0.1l0.1,0.1L63,34.2l-0.2-0.1h-0.3l-0.2,0.1l-0.1,0.1v0.4l0.1,0.2l0.2,0.1l0.2,0.1l0.1,0.1l0.1,0.3l0.1,0.3
				h0.2V36l0.2,0.1l0.1,0.1l0.1,0.2h0.2v0.2l0.1,0.2h0.2v0.2l0.2,0.1l0.2,0.1l0.2,0.1l0.1,0.1l0.1,0.1l0.1,0.1l0.2,0.1h0.5v0.2
				l0.4,0.1l0.5,0.1h0.5l0.2-0.1v-0.4l-0.1-0.1l-0.1-0.1l-0.1-0.1l-0.2-0.1L66.2,37L66,36.9l-0.1-0.1l-0.2-0.1h-0.4h-0.3l-0.2-0.1
				l-0.2-0.1h-0.2v-0.7l-0.1-0.3v-0.2v-0.8l-0.1-0.2l-0.1-0.2h-0.2v-0.2L64.1,34h-0.2v-0.2l-0.1-0.5l-0.1-0.2L63.7,33l0.2,0.1
				l0.1,0.1l0.2,0.1l0.2,0.1h0.5l0.2-0.1l0.1-0.1l0.2-0.1l0.2-0.1l0.1-0.2l0.1-0.9v-0.3l-0.1-0.5h-0.2v-0.4l-0.1-0.1l0.2-0.1
				l0.4-0.1l0.2-0.1l0.2-0.1l0.2-0.1l0.4-0.1L67,30l0.2-0.1v-0.2h0.3V30l0.1,0.1H68l0.1-0.1l0.1-0.1l0.1-0.2v-0.4l-0.1-0.1l-0.1-0.1
				L68,28.9L68,28.8l0.1-0.1l0.1-0.2l0.1-0.1l0.1-0.1l0.1-0.1v-0.5l-0.1-0.2h-0.2v-0.7L68,26.7L68,26.7l-0.1-0.3H68l0.1-0.1l0.2-0.1
				l0.1-0.2l0.1-0.1l0.1-0.2v-0.2h0.2v0.2V26v0.2l0.1,0.2l0.1,0.1h0.8l0.2-0.1v0.1l-0.1,0.1l-0.1,0.1v0.3h-0.2v0.3h0.2v0.4l0.1,0.1
				h0.6l0.1-0.1l0.1-0.3v-0.2h0.2l0.5-0.1l0.2-0.1l0.2-0.1l0.1-0.1l0.2-0.1l0.1-0.1l0.1-0.1l0.2-0.1l0.2-0.1l0.1-0.1l0.1-0.3
				l0.1-0.5l0.1-0.3v-0.4l-0.1-0.2v-0.1l0.1-0.1l0.2-0.1l0.1-0.1l0.2-0.1l0.3-0.1l0.2-0.1v-0.6l-0.1-0.1l-0.1-0.1l-0.2-0.1L72.7,23
				h-0.2v-0.2H72l-0.1,0.1L71.8,23l-0.1,0.3l-0.1,0.3l-0.1,0.4l-0.1,0.4l-0.1,0.6V25h-0.2l-0.1,0.1l-0.1,0.1L71,25.4l-0.2,0.1
				l-0.1,0.1v0.2h-0.2l-0.3,0.1L70.2,26l-0.1,0.1l-0.2,0.1v-0.8l-0.1-0.2L69.8,25V25l0.1-0.2l0.1-0.1l0.1-0.3l0.1-0.1l0.1-0.1
				l0.1-0.1l0.2-0.1l0.5-0.1l0.1-0.1l0.1-0.1l0.2-0.1l0.1-0.2l0.1-0.1l0.1-0.1l0.1-0.2v-0.5h0.2l0.1-0.2l0.1-0.2l0.1-0.1l0.1-0.1
				l0.1-0.2l-0.1,0.3v0.5l0.2,0.1h0.4l0.2-0.1l0.1-0.7l0.1-0.1l0.1-0.1l0.1-0.1l0.1-0.1v-0.5L73,20.9l-0.1-0.4l-0.1-0.4v-0.4V19
				l-0.1-0.1h-0.5H72v-0.3l0.1-0.1v-0.5v-0.3v-0.2h0.3v-0.2h0.2l0.1-0.1h0.8l0.2,0.1H74v0.2h0.5l0.1-0.1l0.2-0.1l0.2-0.1l0.2-0.1
				l0.2-0.1l0.1-0.2v-0.3h0.2l0.1-0.1l0.1-0.1l0.1-0.1v-0.3H76v0.4h-0.2l-0.1,0.1l-0.1,0.2l-0.1,0.2l-0.1,0.3l-0.1,0.1v0.2h-0.2
				l-0.1,0.2l-0.1,0.1L75,18v2.5l0.1,0.2l0.1,0.1l0.1,0.1h0.5l0.1-0.1l0.1-0.1l0.1-0.1l0.1-0.1l0.1-0.2l0.1-0.1l0.1-0.5l0.1-0.3
				l0.2-0.1l0.1-0.1l0.2-0.1l0.1-0.1l0.1-0.1l0.1-0.1l0.1-0.4v-1v-0.4l0.1-0.2l0.1-0.1l0.2-0.1l0.3-0.1l0.1-0.1H78l0.1,0.1l0.1,0.1
				h0.3l0.2-0.1l0.1-0.1l0.1-0.4l0.1-0.2l0.1-0.2l0.2-0.1l0.3-0.1l0.3-0.1l0.5-0.1l0.4-0.1v-0.8l-0.1-0.1h-0.2v-0.3L80.3,14h0.3
				l0.3-0.1h0.3l0.3,0.1l0.2,0.1H82l0.1-0.1l0.1-0.2v-0.5h0.2l0.1-0.1v-0.6l-0.1-0.1l-0.1-0.3l-0.1-0.1L82.1,12L82,11.9l-0.2-0.1
				l-0.1-0.1l-0.1-0.2l-0.1-0.1l-0.1-0.1l-0.1-0.1l-0.1-0.1l-0.1-0.1L81.1,11L81,10.9l-0.2-0.1l-0.6-0.1l-0.1-0.1l-0.1-0.1L80,10.4
				l-0.4-0.1l-0.2-0.1l-0.2-0.1h-0.8l-0.1,0.2h-0.1l-0.3-0.1h-0.4l-0.9,0.1h-0.2v-0.3V9.5l-0.1-0.2l-0.4-0.1h-0.6l-0.4,0.1h-0.1
				l-0.3,0l0.1-0.2V8.6l-0.1-0.1l-0.2-0.1l-0.9-0.1l-0.2-0.1l-0.2-0.1l-0.2-0.1h-0.4l-0.2,0.1l-0.1,0.1l-0.1,0.1l-0.1,0.1L72,8.5
				l-0.2,0.1l-0.1,0.3l-1,0.1l-0.2,0.1h-0.1L70.5,9l-0.1-0.1h-0.2V8.7L70,8.6l-0.2-0.1l-0.3-0.1h-0.2V8.3l-0.1-0.1l-0.1-0.1L68.9,8
				l-0.2-0.1l-0.2-0.1l-0.1-0.4l-0.2-0.1L68,7.2l-0.2-0.1L67.7,7l-0.1-0.1l-0.8-0.1l-0.2-0.1l-0.2-0.1V6.4h0.2l0.1-0.1l0.1-0.2
				L66.8,6l0.1-0.2V5.2l-0.1-0.5l-0.1-0.2l-0.1-0.2l-0.1-0.1l-0.3-0.1h-0.2h-0.2l-0.1-0.1l-0.1-0.8H65L64.8,3.5z"/>
			<polygon fill-rule="evenodd" clip-rule="evenodd" fill="#B24642" points="68.1,37.5 68,37.6 68,37.7 67.8,37.8 67.8,38.2 
				68,38.3 68.5,38.3 68.7,38.2 68.8,38.2 68.9,38.1 68.9,38 68.9,37.7 68.9,37.5 68.7,37.4 68.3,37.4 			"/>
			<polygon fill-rule="evenodd" clip-rule="evenodd" fill="#B24642" points="69.6,35.5 69.5,35.7 69.5,36.1 69.6,36.3 69.7,36.4 
				69.8,36.6 69.9,36.6 70,36.7 70.5,36.8 70.6,36.9 70.8,37 70.8,37.1 71.1,37.1 71.1,37.3 71.1,37.5 71.2,37.8 71.3,37.9 71.5,38 
				71.7,38.1 72.7,38.2 72.8,38.2 73,38.3 73.1,38.4 73.2,38.5 73.7,38.5 73.7,38.4 73.8,38.2 73.8,38 73.7,37.9 73.7,37.8 
				73.6,37.7 73.5,37.5 73.4,37.4 73.3,37.4 73.3,37 73.2,36.9 73.1,36.7 73,36.6 72.8,36.6 72.7,36.6 72.7,36.4 72.4,36.3 
				72.4,36.2 72.2,36.1 72,36 71.8,35.9 71.4,35.8 71.4,35.7 71.3,35.6 70.5,35.5 70.2,35.4 69.8,35.4 			"/>
			<polygon fill-rule="evenodd" clip-rule="evenodd" fill="#B24642" points="52.9,38.5 52.8,38.8 52.6,38.9 52.4,39 52.3,39.1 
				52.2,39.2 52.1,39.3 52,39.5 51.9,39.8 51.9,40.1 51.9,40.4 51.9,41.8 52,41.9 52.1,42 52.2,42.1 52.6,42.1 52.9,42 53,41.8 
				53.1,41.7 53.1,41.6 53.2,41.3 53.3,40.8 53.4,40.5 53.4,40 53.5,39.9 53.6,39.7 53.6,39.3 53.6,39 53.6,38.6 53.5,38.4 
				53.1,38.4 			"/>
			<polygon fill-rule="evenodd" clip-rule="evenodd" fill="#B24642" points="69.6,38.2 69.4,38.2 69.3,38.3 69.2,38.4 69.2,38.5 
				68.6,38.6 68.5,38.7 68.4,38.8 68.3,38.9 68.1,39 68,39.1 67.8,39.2 67.7,39.3 67.6,39.5 67.6,39.6 67.3,39.7 67.2,39.8 
				67.1,39.9 67.1,40 66.9,40 66.5,40.1 66.4,40.2 66.3,40.3 66.2,40.5 66.1,40.6 66.1,40.8 65.9,40.8 65.8,40.9 65.8,41.9 65.9,43 
				66,43.1 66.1,43.5 66.1,43.8 66,44.1 65.9,44.2 65.9,44.4 66,44.6 66.1,44.7 66.2,44.8 66.5,44.9 66.8,44.9 67.4,44.8 68.3,44.7 
				68.4,44.6 68.5,44.4 69.6,44.3 69.8,44.3 70.1,44.4 70.2,44.6 70.2,44.7 70.3,44.8 70.5,44.9 70.6,44.9 70.7,45 70.8,45.1 
				71.1,45.1 71.1,45.3 71.1,45.4 71.2,46.1 71.3,46.2 71.6,46.2 71.6,46.4 71.8,46.5 72.1,46.5 72.1,47.3 72.1,47.4 72.2,47.6 
				72.3,47.7 72.4,47.8 73,47.8 73.1,47.7 73.3,47.6 73.3,46.6 73.2,46.5 73,46.5 72.3,46.5 72.3,46.4 72.7,46.4 72.7,46.2 
				72.9,46.2 73.1,46.1 73.3,46 73.4,45.9 73.5,45.8 73.6,45.7 73.7,45.5 73.7,44.9 73.8,44.8 73.9,44.7 74,44.6 74,44.3 74.1,44.3 
				74.2,44.2 74.3,44 74.3,43.3 74.3,42.6 74.3,42.1 74.2,41.7 74.1,41.6 74,41.6 73.9,41.3 73.8,41.2 73.7,41.1 73.7,41 73.6,40.9 
				73.5,40.8 73.3,40.8 73.3,40.5 73.3,40.3 73.2,40.2 73.1,40.1 73,40.1 73,39.9 72.9,39.7 72.8,39.5 72.7,39.3 72.7,39 72.5,38.9 
				72.4,38.5 72.4,38.2 72.3,38.2 71.8,38.2 71.8,38.2 71.7,38.3 71.6,38.9 71.6,39.3 71.2,39.2 71.1,39.1 70.9,39.1 71,38.9 
				71.1,38.8 71.1,38.4 70.8,38.3 70.7,38.2 70.5,38.2 70.2,38.1 69.9,38.1 			"/>
			<polygon fill-rule="evenodd" clip-rule="evenodd" fill="#B24642" points="78,44.7 78,45 78.1,45.1 78.1,46.1 78.2,46.2 
				78.3,46.5 77.8,46.5 77.7,46.5 77.6,46.6 77.5,46.7 77.4,46.9 77.3,47 77.2,47.2 77.1,47.3 77.1,47.5 76.9,47.6 76.8,47.7 
				76.8,47.8 76.7,47.9 76.6,48 76.6,48.3 76.7,48.4 76.8,48.5 77,48.6 77.1,48.7 77.2,48.8 77.4,48.8 77.6,48.7 77.7,48.6 
				77.8,48.5 77.9,48.4 78.1,48.3 78.1,48.2 78.2,47.9 78.3,47.7 78.4,47.6 78.4,47.4 78.4,46.9 78.6,47 78.8,47 78.9,46.9 79,46.8 
				79.1,46.5 79.2,46.5 79.3,46.4 79.3,45.7 79,45.7 79,45.5 78.9,45.5 78.9,45.3 78.8,44.9 78.7,44.7 78.7,44.6 78.1,44.6 			"/>
		</g>
	</g>
	<path fill="#FFFFFF" stroke="#1692CB" stroke-width="0.9559" stroke-miterlimit="10" d="M22.3,23h7.8v15.3h-7.4l-6.8-6.7l-0.1,6.7
		H8.5V23h7.2l6.5,6.2L22.3,23L22.3,23z M51.1,23h8.6l-8.2,15.3h-9.7L33.2,23h7.9l5.1,8.1L51.1,23L51.1,23z M85.1,27.5
		c-0.9-3.7-8.6-5.1-12.5-5.1c-4.3,0-14.4,1.6-14.3,7.9c0.2,6.4,9.5,8,14.1,8c5.3-0.1,11.5-2,13.2-6.7l-7.9-0.8
		c-0.9,2.5-4.3,2.5-6.2,2.5c-1.9,0-3.3-1.7-3.4-2.9c-0.5-5.4,8.2-5.1,9.5-1.4L85.1,27.5z"/>
	<g>
		<g>
			<path fill="#FFFFFF" d="M4.5,73H2.8v-9.1h1.7V73z"/>
			<path fill="#FFFFFF" d="M11.7,66.6H10v-0.2c0-0.4-0.1-0.8-0.2-1C9.7,65.2,9.4,65,9,65c-0.3,0-0.5,0.1-0.7,0.2
				c-0.2,0.1-0.2,0.4-0.2,0.6c0,0.3,0.1,0.6,0.3,0.8c0.1,0.1,0.3,0.3,0.7,0.5c0.3,0.2,0.7,0.5,1.1,0.7c0.4,0.3,0.8,0.6,1,0.8
				c0.3,0.3,0.5,0.6,0.6,0.9c0.1,0.3,0.2,0.6,0.2,1.1c0,0.8-0.3,1.5-0.8,1.9c-0.5,0.5-1.2,0.7-2,0.7c-1,0-1.7-0.3-2.1-0.8
				c-0.4-0.5-0.6-1.1-0.6-2v-0.7H8v0.5v0.2c0,0.4,0.1,0.7,0.3,1c0.2,0.2,0.4,0.4,0.8,0.4c0.7,0,1-0.4,1-1.1c0-0.3-0.1-0.5-0.2-0.7
				c-0.1-0.2-0.3-0.4-0.5-0.5c-0.2-0.2-0.5-0.4-1-0.7c-0.8-0.5-1.3-1-1.6-1.4c-0.3-0.4-0.4-0.9-0.4-1.4c0-1.6,0.9-2.4,2.7-2.4
				c0.9,0,1.6,0.2,2,0.7C11.4,64.8,11.7,65.6,11.7,66.6z"/>
			<path fill="#FFFFFF" d="M13.2,69v-1.3c0-1.4,0.2-2.3,0.5-2.9c0.4-0.8,1.3-1.2,2.5-1.2c1.2,0,2.1,0.4,2.5,1.1
				c0.3,0.6,0.5,1.5,0.5,2.9V69c0,1,0,1.7-0.1,2.2c-0.1,0.7-0.4,1.2-0.8,1.5c-0.5,0.4-1.1,0.5-2,0.5c-0.9,0-1.5-0.2-2-0.5
				c-0.4-0.3-0.7-0.8-0.8-1.5C13.3,70.7,13.2,70,13.2,69z M15,67.3v2.5c0,0.6,0.1,1,0.2,1.3c0.2,0.5,0.5,0.7,1,0.7
				c0.5,0,0.9-0.2,1.1-0.7c0.1-0.3,0.2-0.8,0.2-1.4v-2.4c0-0.6-0.1-1.1-0.2-1.4c-0.2-0.6-0.5-0.9-1.1-0.9c-0.5,0-0.8,0.2-1,0.7
				C15.1,66,15,66.4,15,67V67.3z"/>
			<path fill="#FFFFFF" d="M30,67.3v2.2c0,1.4-0.2,2.4-0.6,2.9c-0.4,0.5-1.1,0.8-2,0.8c-0.7,0-1.2-0.2-1.6-0.5
				c-0.4-0.3-0.7-0.8-0.7-1.5v-0.1h1.6c0,0.2,0,0.4,0.1,0.5c0.1,0.2,0.3,0.3,0.5,0.3h0.1c0.4,0,0.7-0.2,0.8-0.6
				c0.1-0.2,0.1-0.6,0.1-1.1v-0.6c-0.2,0.2-0.3,0.3-0.5,0.4c-0.2,0.1-0.5,0.2-0.9,0.2c-0.7,0-1.2-0.2-1.5-0.7
				C25.1,69,25,68.2,25,67.3c0-1.2,0.2-2.1,0.5-2.6c0.4-0.6,1.1-0.9,2-0.9c0.9,0,1.6,0.3,2,0.9c0.4,0.5,0.5,1.3,0.5,2.4V67.3z
				 M28.3,67.2V67c0-0.6,0-1.1-0.1-1.3c-0.1-0.4-0.3-0.5-0.7-0.5h-0.1c-0.3,0-0.6,0.1-0.7,0.4c-0.1,0.2-0.2,0.6-0.2,1.1v0.6v0.3
				c0,0.5,0.1,0.9,0.2,1.1c0.1,0.2,0.3,0.3,0.6,0.3c0.4,0,0.6-0.2,0.7-0.5C28.3,68.1,28.3,67.7,28.3,67.2z"/>
			<path fill="#FFFFFF" d="M31.5,70.5v-4.1c0-0.9,0.2-1.6,0.7-2c0.4-0.4,1-0.6,1.8-0.6c0.8,0,1.4,0.2,1.8,0.6c0.4,0.4,0.7,1.1,0.7,2
				v4.1c0,0.9-0.2,1.6-0.7,2c-0.4,0.4-1,0.6-1.8,0.6c-0.8,0-1.4-0.2-1.8-0.6C31.7,72.1,31.5,71.5,31.5,70.5z M33.2,66.4v4.1v0.2
				c0,0.4,0.1,0.7,0.2,0.9c0.1,0.1,0.3,0.2,0.5,0.2c0.2,0,0.4-0.1,0.5-0.2c0.2-0.2,0.2-0.5,0.2-0.9v-4.4c0-0.4-0.1-0.7-0.2-0.9
				c-0.1-0.2-0.3-0.3-0.5-0.3c-0.2,0-0.4,0.1-0.5,0.2c-0.2,0.2-0.2,0.5-0.2,0.9V66.4z"/>
			<path fill="#FFFFFF" d="M37.9,70.5v-4.1c0-0.9,0.2-1.6,0.7-2c0.4-0.4,1-0.6,1.8-0.6c0.8,0,1.4,0.2,1.8,0.6c0.4,0.4,0.7,1.1,0.7,2
				v4.1c0,0.9-0.2,1.6-0.7,2c-0.4,0.4-1,0.6-1.8,0.6c-0.8,0-1.4-0.2-1.8-0.6C38.1,72.1,37.9,71.5,37.9,70.5z M39.6,66.4v4.1v0.2
				c0,0.4,0.1,0.7,0.2,0.9c0.1,0.1,0.3,0.2,0.5,0.2c0.2,0,0.4-0.1,0.5-0.2c0.2-0.2,0.2-0.5,0.2-0.9v-4.4c0-0.4-0.1-0.7-0.2-0.9
				c-0.1-0.2-0.3-0.3-0.5-0.3c-0.2,0-0.4,0.1-0.5,0.2c-0.2,0.2-0.2,0.5-0.2,0.9V66.4z"/>
			<path fill="#FFFFFF" d="M46.4,73v-6.3h-2.1v-1.2c0.7,0,1.2-0.1,1.6-0.3c0.5-0.3,0.8-0.7,0.9-1.3h1.3V73H46.4z"/>
			<path fill="#FFFFFF" d="M54.6,67.8l1.1,2c0.2-0.6,0.3-1.1,0.3-1.7h1.4c0,1.1-0.3,2.1-0.8,3.1l1.1,1.8h-1.8l-0.3-0.6
				c-0.3,0.3-0.6,0.5-0.9,0.6c-0.3,0.1-0.7,0.2-1.2,0.2c-0.7,0-1.3-0.3-1.7-0.8c-0.5-0.5-0.7-1.2-0.7-2c0-0.6,0.2-1.2,0.5-1.7
				c0.3-0.4,0.7-0.8,1.3-1.2c-0.2-0.4-0.4-0.7-0.5-0.9c-0.2-0.4-0.2-0.7-0.2-1c0-0.7,0.2-1.2,0.7-1.5c0.4-0.3,0.9-0.4,1.4-0.4
				c0.5,0,0.9,0.2,1.3,0.5c0.4,0.4,0.6,0.8,0.6,1.4c0,0.5-0.1,0.9-0.4,1.3C55.4,67.2,55.1,67.5,54.6,67.8z M54.9,71.3l-1.5-2.5
				c-0.2,0.1-0.3,0.2-0.5,0.5c-0.2,0.3-0.3,0.6-0.3,1v0.2c0.1,0.4,0.2,0.7,0.4,0.9c0.2,0.3,0.5,0.4,0.8,0.4c0.2,0,0.4,0,0.6-0.1
				C54.5,71.6,54.7,71.5,54.9,71.3z M53.9,66.7c0.2-0.2,0.4-0.3,0.5-0.5c0.2-0.2,0.2-0.4,0.2-0.6c0-0.2-0.1-0.4-0.2-0.5
				c-0.1-0.1-0.3-0.2-0.4-0.2h0c-0.1,0-0.3,0.1-0.4,0.2c-0.1,0.1-0.2,0.2-0.2,0.4c0,0.2,0.1,0.4,0.2,0.6
				C53.7,66.3,53.8,66.5,53.9,66.7z"/>
			<path fill="#FFFFFF" d="M61.4,73v-6.3h-2.1v-1.2c0.7,0,1.2-0.1,1.6-0.3c0.5-0.3,0.8-0.7,0.9-1.3h1.3V73H61.4z"/>
			<path fill="#FFFFFF" d="M65.6,65.4V64h5.1v1.2c-0.4,0.7-0.7,1.4-1,2.2c-0.2,0.6-0.5,1.4-0.7,2.2c-0.2,0.7-0.3,1.2-0.4,1.6
				c-0.1,0.6-0.2,1.2-0.2,1.7h-1.7c0-0.6,0.1-1.2,0.2-1.9c0.1-0.6,0.3-1.3,0.5-1.9c0-0.1,0.3-0.7,0.7-1.8c0.1-0.3,0.3-0.6,0.4-1
				c0.2-0.4,0.4-0.8,0.6-1.1H65.6z"/>
			<path fill="#FFFFFF" d="M72.2,70.5v-4.1c0-0.9,0.2-1.6,0.7-2c0.4-0.4,1-0.6,1.8-0.6c0.8,0,1.4,0.2,1.8,0.6c0.4,0.4,0.7,1.1,0.7,2
				v4.1c0,0.9-0.2,1.6-0.7,2c-0.4,0.4-1,0.6-1.8,0.6c-0.8,0-1.4-0.2-1.8-0.6C72.5,72.1,72.2,71.5,72.2,70.5z M73.9,66.4v4.1v0.2
				c0,0.4,0.1,0.7,0.2,0.9c0.1,0.1,0.3,0.2,0.5,0.2c0.2,0,0.4-0.1,0.5-0.2c0.2-0.2,0.2-0.5,0.2-0.9v-4.4c0-0.4-0.1-0.7-0.2-0.9
				c-0.1-0.2-0.3-0.3-0.5-0.3c-0.2,0-0.4,0.1-0.5,0.2c-0.2,0.2-0.2,0.5-0.2,0.9V66.4z"/>
			<path fill="#FFFFFF" d="M83.5,73h-5c0-0.2,0-0.4,0-0.6c0-0.2,0.1-0.5,0.1-1c0.1-0.3,0.2-0.7,0.4-1.1c0.3-0.5,0.7-0.9,1.2-1.5
				l0.8-0.9c0.3-0.4,0.5-0.6,0.6-0.8c0.1-0.3,0.2-0.6,0.2-1c0-0.4-0.1-0.7-0.2-0.8c-0.1-0.2-0.3-0.3-0.6-0.3c-0.2,0-0.4,0-0.5,0.1
				c-0.1,0.1-0.2,0.2-0.3,0.3c-0.1,0.2-0.1,0.3-0.1,0.4c0,0.1,0,0.3,0,0.5v0.3h-1.6v-0.3v-0.1c0-0.7,0.1-1.3,0.3-1.7
				c0.4-0.7,1.1-1.1,2.2-1.1h0c0.7,0,1.3,0.2,1.8,0.6c0.5,0.4,0.7,1,0.7,1.7c0,0.5-0.1,0.9-0.3,1.3c-0.2,0.4-0.5,0.8-0.8,1.2
				l-1.3,1.4c-0.3,0.3-0.4,0.5-0.6,0.7c-0.2,0.3-0.3,0.6-0.3,0.9h3.2V73z"/>
			<path fill="#FFFFFF" d="M85.1,70.5v-4.1c0-0.9,0.2-1.6,0.7-2c0.4-0.4,1-0.6,1.8-0.6c0.8,0,1.4,0.2,1.8,0.6c0.4,0.4,0.7,1.1,0.7,2
				v4.1c0,0.9-0.2,1.6-0.7,2c-0.4,0.4-1,0.6-1.8,0.6c-0.8,0-1.4-0.2-1.8-0.6C85.3,72.1,85.1,71.5,85.1,70.5z M86.8,66.4v4.1v0.2
				c0,0.4,0.1,0.7,0.2,0.9c0.1,0.1,0.3,0.2,0.5,0.2c0.2,0,0.4-0.1,0.5-0.2c0.2-0.2,0.2-0.5,0.2-0.9v-4.4c0-0.4-0.1-0.7-0.2-0.9
				c-0.1-0.2-0.3-0.3-0.5-0.3c-0.2,0-0.4,0.1-0.5,0.2c-0.2,0.2-0.2,0.5-0.2,0.9V66.4z"/>
		</g>
	</g>
</g>
<g>
	<path fill="#FFFFFF" d="M109.5,23.1v-3.6h2.7v18.6h-2.8l-2.1-6.7c-0.6-1.9-1.3-4.4-1.9-7.4c0.1,1.8,0.2,3.5,0.3,5.3
		c0,0.7,0,1.6,0.1,2.8c0,1.2,0.1,2,0.1,2.5v3.5H103V19.5h2.8l2.1,6.8c0.4,1.2,0.7,2.3,1,3.4c0.3,1.1,0.6,2.4,1,4.1l-0.2-5.3
		c0-0.9,0-1.7,0-2.5C109.5,25.2,109.5,24.2,109.5,23.1z"/>
	<path fill="#FFFFFF" d="M116.9,38.2H114l3.5-18.6h3.7l3.3,18.6h-2.9l-0.7-4.7h-3.2L116.9,38.2z M118.8,25.4l-0.8,5.3h2.3l-0.7-5.3
		c-0.1-0.4-0.1-0.8-0.1-1c0-0.2-0.1-0.8-0.1-1.6c0-0.2,0-0.4,0-0.7c0-0.2,0-0.4,0-0.6l-0.2,1.2c0,0.4-0.1,0.9-0.1,1.3
		C119,24.5,118.9,24.9,118.8,25.4z"/>
	<path fill="#FFFFFF" d="M130.8,31.4l1.5-11.9h2.9L132,38.2h-3.6l-3.2-18.6h2.9l1.7,11.9c0.1,0.5,0.1,1,0.2,1.7
		c0.1,0.7,0.1,1.2,0.1,1.4c0,0.3,0,0.6,0.1,0.9c0,0.3,0,0.6,0,0.6c0-0.2,0-0.4,0.1-0.8c0-0.3,0.1-0.6,0.1-0.8
		C130.5,33.5,130.6,32.5,130.8,31.4z"/>
	<path fill="#FFFFFF" d="M139.8,38.2h-2.7V19.5h2.7V38.2z"/>
	<path fill="#FFFFFF" d="M148.5,31.5h2.7l0,1.1c0,1.8-0.3,3.3-0.9,4.3c-0.7,1.2-1.8,1.7-3.2,1.7c-1.4,0-2.5-0.4-3.2-1.1
		c-0.6-0.7-1.1-1.7-1.3-3c-0.2-1-0.2-2.4-0.2-4.4v-2.7c0-2.8,0.2-4.8,0.7-5.9c0.7-1.6,2-2.4,4-2.4c1.2,0,2.2,0.4,2.9,1.2
		c0.7,0.8,1.1,2,1.1,3.6l0.1,1v0.4h-2.7c-0.1-1.4-0.2-2.1-0.2-2.2c-0.2-0.8-0.6-1.3-1.1-1.3c-0.8,0-1.3,0.5-1.7,1.4
		c-0.2,0.6-0.3,1.5-0.3,2.6v0.7v5.2c0,1.1,0.1,2,0.3,2.6c0.3,1,0.9,1.4,1.7,1.4c0.6,0,1.1-0.6,1.3-1.7
		C148.4,33.6,148.5,32.7,148.5,31.5z"/>
	<path fill="#FFFFFF" d="M152.8,30v-2.7c0-2.8,0.2-4.8,0.7-5.9c0.7-1.6,2-2.4,4-2.4c2,0,3.3,0.8,4,2.3c0.5,1.1,0.8,3.1,0.8,5.9V30
		c0,2-0.1,3.5-0.2,4.4c-0.2,1.4-0.7,2.4-1.3,3.1c-0.7,0.7-1.8,1.1-3.2,1.1c-1.4,0-2.5-0.4-3.2-1.1c-0.6-0.7-1.1-1.7-1.3-3
		C152.9,33.5,152.8,32,152.8,30z M155.6,26.6v5.2c0,1.1,0.1,2,0.3,2.6c0.3,1,0.9,1.4,1.7,1.4c0.8,0,1.4-0.5,1.7-1.5
		c0.2-0.6,0.3-1.6,0.3-2.8v-4.9c0-1.3-0.1-2.3-0.3-2.9c-0.3-1.2-0.9-1.8-1.7-1.8c-0.8,0-1.3,0.5-1.6,1.4c-0.2,0.6-0.3,1.5-0.3,2.6
		V26.6z"/>
	<path fill="#FFFFFF" d="M171.1,23.1v-3.6h2.7v18.6H171l-2.1-6.7c-0.6-1.9-1.3-4.4-1.9-7.4c0.1,1.8,0.2,3.5,0.3,5.3
		c0,0.7,0,1.6,0.1,2.8c0,1.2,0.1,2,0.1,2.5v3.5h-2.7V19.5h2.8l2.1,6.8c0.4,1.2,0.7,2.3,1,3.4c0.3,1.1,0.6,2.4,1,4.1l-0.2-5.3
		c0-0.9,0-1.7,0-2.5C171.1,25.2,171.1,24.2,171.1,23.1z"/>
	<path fill="#FFFFFF" d="M175.7,22.2v-2.7h9.1v2.7h-3.2v15.9h-2.7V22.2H175.7z"/>
	<path fill="#FFFFFF" d="M189.7,30.1h-0.5v8.1h-2.7V19.5h5.2c1.3,0,2.3,0.3,2.9,0.9c0.8,0.7,1.2,1.9,1.2,3.5c0,1.2-0.1,2.2-0.4,2.9
		c-0.4,0.9-1,1.5-1.8,1.6c0.8,0.2,1.3,0.6,1.7,1.2c0.3,0.5,0.4,1.3,0.4,2.3v0.8c0,1.1,0,2.2,0.1,3.2c0.1,1.1,0.3,1.7,0.5,1.9v0.3h-3
		c-0.1-0.4-0.2-1-0.2-1.7c0-0.7-0.1-1.5-0.1-2.2v-0.8c0-0.8,0-1.4-0.1-1.8c-0.1-0.7-0.4-1.1-0.8-1.2c-0.2-0.1-0.5-0.1-0.9-0.2
		C190.8,30.1,190.3,30.1,189.7,30.1z M189.2,22.2v5.1h2.1c0.5,0,0.9-0.2,1.2-0.7c0.3-0.4,0.4-1.1,0.4-2c0-1-0.1-1.6-0.4-2
		c-0.3-0.3-0.7-0.5-1.3-0.5H189.2z"/>
	<path fill="#FFFFFF" d="M198,30v-2.7c0-2.8,0.2-4.8,0.7-5.9c0.7-1.6,2-2.4,4-2.4c2,0,3.3,0.8,4,2.3c0.5,1.1,0.8,3.1,0.8,5.9V30
		c0,2-0.1,3.5-0.2,4.4c-0.2,1.4-0.7,2.4-1.3,3.1c-0.7,0.7-1.8,1.1-3.2,1.1c-1.4,0-2.5-0.4-3.2-1.1c-0.6-0.7-1.1-1.7-1.3-3
		C198.1,33.5,198,32,198,30z M200.8,26.6v5.2c0,1.1,0.1,2,0.3,2.6c0.3,1,0.9,1.4,1.7,1.4c0.8,0,1.4-0.5,1.7-1.5
		c0.2-0.6,0.3-1.6,0.3-2.8v-4.9c0-1.3-0.1-2.3-0.3-2.9c-0.3-1.2-0.9-1.8-1.7-1.8c-0.8,0-1.3,0.5-1.6,1.4c-0.2,0.6-0.3,1.5-0.3,2.6
		V26.6z"/>
	<path fill="#FFFFFF" d="M217.5,38.2h-7.8V19.5h2.7v15.9h5.1V38.2z"/>
</g>
</svg>
